<svg viewBox="0 0 304 262" fill="none" xmlns="http://www.w3.org/2000/svg">
<path d="M86.4 106.3C86.4 110 86.8 113 87.5 115.2C88.3 117.4 89.3 119.8 90.7 122.4C91.2 123.2 91.4 124 91.4 124.7C91.4 125.7 90.8 126.7 89.5 127.7L83.2 131.9C82.3 132.5 81.4 132.8 80.6 132.8C79.6 132.8 78.6 132.3 77.6 131.4C76.2 129.9 75 128.3 74 126.7C73 125 72 123.1 70.9 120.8C63.1 130 53.3 134.6 41.5 134.6C33.1 134.6 26.4 132.2 21.5 127.4C16.6 122.6 14.1 116.2 14.1 108.2C14.1 99.7 17.1 92.8 23.2 87.6C29.3 82.4 37.4 79.8 47.7 79.8C51.1 79.8 54.6 80.1 58.3 80.6C62 81.1 65.8 81.9 69.8 82.8V75.5C69.8 67.9 68.2 62.6 65.1 59.5C61.9 56.4 56.5 54.9 48.8 54.9C45.3 54.9 41.7 55.3 38 56.2C34.3 57.1 30.7 58.2 27.2 59.6C25.6 60.3 24.4 60.7 23.7 60.9C23 61.1 22.5 61.2 22.1 61.2C20.7 61.2 20 60.2 20 58.1V53.2C20 51.6 20.2 50.4 20.7 49.7C21.2 49 22.1 48.3 23.5 47.6C27 45.8 31.2 44.3 36.1 43.1C41 41.8 46.2 41.2 51.7 41.2C63.6 41.2 72.3 43.9 77.9 49.3C83.4 54.7 86.2 62.9 86.2 73.9V106.3H86.4ZM45.8 121.5C49.1 121.5 52.5 120.9 56.1 119.7C59.7 118.5 62.9 116.3 65.6 113.3C67.2 111.4 68.4 109.3 69 106.9C69.6 104.5 70 101.6 70 98.2V94C67.1 93.3 64 92.7 60.8 92.3C57.6 91.9 54.5 91.7 51.4 91.7C44.7 91.7 39.8 93 36.5 95.7C33.2 98.4 31.6 102.2 31.6 107.2C31.6 111.9 32.8 115.4 35.3 117.8C37.7 120.3 41.2 121.5 45.8 121.5ZM126.1 132.3C124.3 132.3 123.1 132 122.3 131.3C121.5 130.7 120.8 129.3 120.2 127.4L96.7 50.1C96.1 48.1 95.8 46.8 95.8 46.1C95.8 44.5 96.6 43.6 98.2 43.6H108C109.9 43.6 111.2 43.9 111.9 44.6C112.7 45.2 113.3 46.6 113.9 48.5L130.7 114.7L146.3 48.5C146.8 46.5 147.4 45.2 148.2 44.6C149 44 150.4 43.6 152.2 43.6H160.2C162.1 43.6 163.4 43.9 164.2 44.6C165 45.2 165.7 46.6 166.1 48.5L181.9 115.5L199.2 48.5C199.8 46.5 200.5 45.2 201.2 44.6C202 44 203.3 43.6 205.1 43.6H214.4C216 43.6 216.9 44.4 216.9 46.1C216.9 46.6 216.8 47.1 216.7 47.7C216.6 48.3 216.4 49.1 216 50.2L191.9 127.5C191.3 129.5 190.6 130.8 189.8 131.4C189 132 187.7 132.4 186 132.4H177.4C175.5 132.4 174.2 132.1 173.4 131.4C172.6 130.7 171.9 129.4 171.5 127.4L156 62.9L140.6 127.3C140.1 129.3 139.5 130.6 138.7 131.3C137.9 132 136.5 132.3 134.7 132.3H126.1ZM254.6 135C249.4 135 244.2 134.4 239.2 133.2C234.2 132 230.3 130.7 227.7 129.2C226.1 128.3 225 127.3 224.6 126.4C224.2 125.5 224 124.5 224 123.6V118.5C224 116.4 224.8 115.4 226.3 115.4C226.9 115.4 227.5 115.5 228.1 115.7C228.7 115.9 229.6 116.3 230.6 116.7C234 118.2 237.7 119.4 241.6 120.2C245.6 121 249.5 121.4 253.5 121.4C259.8 121.4 264.7 120.3 268.1 118.1C271.5 115.9 273.3 112.7 273.3 108.6C273.3 105.8 272.4 103.5 270.6 101.6C268.8 99.7 265.4 98 260.5 96.4L246 91.9C238.7 89.6 233.3 86.2 230 81.7C226.7 77.3 225 72.4 225 67.2C225 63 225.9 59.3 227.7 56.1C229.5 52.9 231.9 50.1 234.9 47.9C237.9 45.6 241.3 43.9 245.3 42.7C249.3 41.5 253.5 41 257.9 41C260.1 41 262.4 41.1 264.6 41.4C266.9 41.7 269 42.1 271.1 42.5C273.1 43 275 43.5 276.8 44.1C278.6 44.7 280 45.3 281 45.9C282.4 46.7 283.4 47.5 284 48.4C284.6 49.2 284.9 50.3 284.9 51.7V56.4C284.9 58.5 284.1 59.6 282.6 59.6C281.8 59.6 280.5 59.2 278.8 58.4C273.1 55.8 266.7 54.5 259.6 54.5C253.9 54.5 249.4 55.4 246.3 57.3C243.2 59.2 241.6 62.1 241.6 66.2C241.6 69 242.6 71.4 244.6 73.3C246.6 75.2 250.3 77.1 255.6 78.8L269.8 83.3C277 85.6 282.2 88.8 285.3 92.9C288.4 97 289.9 101.7 289.9 106.9C289.9 111.2 289 115.1 287.3 118.5C285.5 121.9 283.1 124.9 280 127.3C276.9 129.8 273.2 131.6 268.9 132.9C264.4 134.3 259.7 135 254.6 135Z" fill="white"/>
<path fill-rule="evenodd" clip-rule="evenodd" d="M273.5 183.6C240.6 207.9 192.8 220.8 151.7 220.8C94.1 220.8 42.2 199.5 2.99999 164.1C-0.100014 161.3 2.69999 157.5 6.39999 159.7C48.8 184.3 101.1 199.2 155.2 199.2C191.7 199.2 231.8 191.6 268.7 176C274.2 173.5 278.9 179.6 273.5 183.6Z" fill="#FF9900"/>
<path fill-rule="evenodd" clip-rule="evenodd" d="M287.2 168C283 162.6 259.4 165.4 248.7 166.7C245.5 167.1 245 164.3 247.9 162.2C266.7 149 297.6 152.8 301.2 157.2C304.8 161.7 300.2 192.6 282.6 207.4C279.9 209.7 277.3 208.5 278.5 205.5C282.5 195.6 291.4 173.3 287.2 168Z" fill="#FF9900"/>
</svg>
