<svg version="1.1" viewBox="0 0 16.9 16.9" xmlns="http://www.w3.org/2000/svg">
  <g transform="translate(-140 -92.7)">
    <path d="m156 103c-1.04 4.16-5.25 6.69-9.41 5.65-4.16-1.04-6.69-5.25-5.65-9.41 1.04-4.16 5.25-6.69 9.41-5.66 4.16 1.04 6.69 5.25 5.65 9.41z" style="fill:#f7931a;stroke-width:.265"/>
    <path d="m152 100c0.155-1.03-0.632-1.59-1.71-1.96l0.349-1.4-0.852-0.212-0.34 1.36c-0.224-0.0558-0.454-0.108-0.683-0.161l0.342-1.37-0.851-0.212-0.349 1.4c-0.185-0.0422-0.367-0.084-0.544-0.128l9.1e-4 -0.0044-1.17-0.293-0.227 0.91s0.632 0.145 0.619 0.154c0.345 0.0862 0.407 0.314 0.397 0.496l-0.397 1.59c0.0238 6e-3 0.0546 0.0148 0.0886 0.0284-0.0284-7e-3 -0.0587-0.0148-0.0901-0.0223l-0.557 2.23c-0.0422 0.105-0.149 0.262-0.39 0.202 8e-3 0.0124-0.619-0.155-0.619-0.155l-0.423 0.975 1.11 0.276c0.206 0.0517 0.408 0.106 0.607 0.157l-0.353 1.42 0.851 0.212 0.349-1.4c0.232 0.0631 0.458 0.121 0.679 0.176l-0.348 1.39 0.852 0.212 0.353-1.41c1.45 0.275 2.55 0.164 3.01-1.15 0.371-1.06-0.0184-1.67-0.783-2.07 0.557-0.128 0.976-0.495 1.09-1.25zm-1.95 2.73c-0.263 1.06-2.04 0.486-2.62 0.343l0.468-1.88c0.578 0.144 2.43 0.43 2.15 1.53zm0.264-2.74c-0.24 0.962-1.72 0.473-2.2 0.354l0.424-1.7c0.481 0.12 2.03 0.344 1.78 1.35z" style="fill:#fff;stroke-width:.265"/>
  </g>
</svg>
