<svg viewBox="0 0 86.387307 86.442738" version="1.1">
  <g transform="translate(-497.45163,-253.2643)">
    <g transform="translate(49.04801,8.6777171)">
      <path
        style="fill:#1c94d8;stroke-width:1"
        d="m 450.09466,330.84732 c -0.30732,-0.12489 -0.81334,-0.5507 -1.12448,-0.94625 l -0.56571,-0.71919 v -41.25245 c 0,-44.85582 -0.085,-42.32834 1.44782,-43.02676 0.52839,-0.24075 10.52777,-0.31609 41.95213,-0.31609 h 41.25837 l 0.86407,0.77205 0.86407,0.77204 v 41.68757 41.68757 l -0.73359,0.73361 -0.7336,0.73362 -41.33515,0.0507 c -22.73434,0.0279 -41.5866,-0.0515 -41.89393,-0.17639 z m 44.87713,-10.87024 c 1.22964,-0.15419 2.25675,-0.30301 2.28246,-0.33073 0.0257,-0.0277 -0.35731,-2.36726 -0.85116,-5.19898 -0.49385,-2.83172 -0.8097,-5.22259 -0.70191,-5.31304 0.1078,-0.0904 0.93404,-0.36199 1.8361,-0.60344 1.29936,-0.34779 3.71673,-1.3215 4.86955,-1.96143 0.0878,-0.0487 1.32535,1.94312 2.75009,4.42636 1.42474,2.48323 2.67984,4.57022 2.78911,4.63776 0.51008,0.31524 6.03131,-4.02909 7.71215,-6.06824 0.72374,-0.87803 0.7846,-1.05994 0.43989,-1.31502 -1.43815,-1.06424 -7.63318,-6.39739 -7.63318,-6.57122 0,-0.1172 0.4712,-0.9034 1.04712,-1.74712 0.57591,-0.84371 1.32187,-2.12228 1.65769,-2.84127 0.33582,-0.71899 0.69581,-1.44108 0.79998,-1.60464 0.13004,-0.20419 1.74305,0.27257 5.14715,1.52136 2.72677,1.0003 4.98616,1.81873 5.02087,1.81873 0.0347,0 0.30145,-0.80367 0.59273,-1.78593 0.68196,-2.29963 1.34488,-6.12879 1.34488,-7.76824 v -1.28279 l -5.35782,-0.0716 -5.35781,-0.0716 -0.18091,-1.83071 c -0.0995,-1.00689 -0.38336,-2.65686 -0.63081,-3.66661 -0.37029,-1.51097 -0.38766,-1.87438 -0.0981,-2.05331 0.19347,-0.11957 2.41192,-0.96991 4.92988,-1.88964 3.15496,-1.1524 4.5776,-1.79561 4.57648,-2.06911 -0.004,-1.07538 -4.34736,-8.54603 -5.3162,-9.14481 -0.1366,-0.0844 -2.02399,1.34331 -4.1942,3.17274 -2.17021,1.82943 -4.0475,3.32624 -4.17175,3.32624 -0.12425,0 -0.81674,-0.60199 -1.53888,-1.33774 -0.72213,-0.73576 -1.94625,-1.7596 -2.72027,-2.27521 -1.02624,-0.68363 -1.36247,-1.05427 -1.24176,-1.36884 0.091,-0.23726 1.23035,-2.29351 2.53178,-4.56946 1.30143,-2.27594 2.36624,-4.25971 2.36624,-4.40836 0,-0.57587 -8.42609,-3.76748 -9.94643,-3.76748 -0.19923,0 -0.42369,0.26789 -0.49881,0.59532 -0.17314,0.75474 -1.72559,9.47549 -1.72559,9.69338 0,0.0893 -1.70924,0.16235 -3.7983,0.16235 h -3.7983 l -0.86918,-4.8948 c -0.47804,-2.69213 -0.92575,-5.04642 -0.99489,-5.23175 -0.16341,-0.43795 -1.35581,-0.23161 -4.35363,0.75336 -2.2983,0.75514 -6.02945,2.48586 -6.02945,2.7968 0,0.15756 4.20263,7.57031 4.94839,8.72815 0.33939,0.52692 0.28723,0.60892 -0.7881,1.23911 -0.63335,0.37116 -1.97436,1.43921 -2.98003,2.37343 l -1.82849,1.69858 -3.84308,-3.21733 c -2.11369,-1.76954 -3.98272,-3.30122 -4.15342,-3.40374 -0.46719,-0.2806 -3.10141,3.48677 -4.64464,6.6426 -0.73207,1.49705 -1.2859,2.76098 -1.23073,2.80872 0.0552,0.0478 2.18268,0.88542 4.72782,1.8615 2.54513,0.97608 4.6638,1.81099 4.70816,1.85535 0.0444,0.0444 -0.24447,0.8928 -0.64184,1.88542 -0.39738,0.99262 -0.91299,2.64426 -1.14581,3.6703 l -0.4233,1.86555 -4.95143,0.072 c -3.93918,0.0573 -4.95142,0.14484 -4.95142,0.42836 0,1.70598 2.01997,9.63931 2.61735,10.27949 0.10085,0.10808 2.31416,-0.57653 4.91847,-1.52135 2.60431,-0.94482 4.88245,-1.71786 5.06254,-1.71786 0.18009,0 0.61656,0.62508 0.96994,1.38906 0.35338,0.76399 1.18694,2.19567 1.85235,3.18152 l 1.20985,1.79245 -4.11918,3.48265 -4.11918,3.48265 2.22007,2.14622 c 1.95792,1.89278 5.83252,4.89837 6.31464,4.89837 0.0963,0 1.11236,-1.63711 2.25788,-3.63802 1.14552,-2.00092 2.35643,-4.08007 2.6909,-4.62035 l 0.60814,-0.98233 1.63739,0.77436 c 0.90056,0.4259 2.44968,0.98362 3.44249,1.23937 1.4652,0.37744 1.8051,0.56354 1.8051,0.98829 0,0.2878 -0.36635,2.65336 -0.81411,5.2568 -0.44776,2.60343 -0.7565,4.79113 -0.68607,4.86155 0.16877,0.16878 3.3954,0.53945 5.079,0.58347 0.73142,0.0191 2.33593,-0.0914 3.56558,-0.24556 z"
      />
      <path
        style="fill:#642c8f;stroke-width:1"
        d="m 450.09466,330.84732 c -0.30732,-0.12489 -0.81334,-0.5507 -1.12448,-0.94625 l -0.56571,-0.71919 v -41.25245 c 0,-44.85582 -0.085,-42.32834 1.44782,-43.02676 0.52839,-0.24075 10.52777,-0.31609 41.95213,-0.31609 h 41.25837 l 0.86407,0.77205 0.86407,0.77204 v 41.68757 41.68757 l -0.73359,0.73361 -0.7336,0.73362 -41.33515,0.0507 c -22.73434,0.0279 -41.5866,-0.0515 -41.89393,-0.17639 z m 44.87713,-10.87024 c 1.22964,-0.15419 2.25675,-0.30301 2.28246,-0.33073 0.0257,-0.0277 -0.35731,-2.36726 -0.85116,-5.19898 -0.49385,-2.83172 -0.8097,-5.22259 -0.70191,-5.31304 0.1078,-0.0904 0.93404,-0.36199 1.8361,-0.60344 1.29936,-0.34779 3.71673,-1.3215 4.86955,-1.96143 0.0878,-0.0487 1.32535,1.94312 2.75009,4.42636 1.42474,2.48323 2.67984,4.57022 2.78911,4.63776 0.51008,0.31524 6.03131,-4.02909 7.71215,-6.06824 0.72374,-0.87803 0.7846,-1.05994 0.43989,-1.31502 -1.43815,-1.06424 -7.63318,-6.39739 -7.63318,-6.57122 0,-0.1172 0.4712,-0.9034 1.04712,-1.74712 0.57591,-0.84371 1.32187,-2.12228 1.65769,-2.84127 0.33582,-0.71899 0.69581,-1.44108 0.79998,-1.60464 0.13004,-0.20419 1.74305,0.27257 5.14715,1.52136 2.72677,1.0003 4.98616,1.81873 5.02087,1.81873 0.0347,0 0.30145,-0.80367 0.59273,-1.78593 0.68196,-2.29963 1.34488,-6.12879 1.34488,-7.76824 v -1.28279 l -5.35782,-0.0716 -5.35781,-0.0716 -0.18091,-1.83071 c -0.0995,-1.00689 -0.38336,-2.65686 -0.63081,-3.66661 -0.37029,-1.51097 -0.38766,-1.87438 -0.0981,-2.05331 0.19347,-0.11957 2.41192,-0.96991 4.92988,-1.88964 3.15496,-1.1524 4.5776,-1.79561 4.57648,-2.06911 -0.004,-1.07538 -4.34736,-8.54603 -5.3162,-9.14481 -0.1366,-0.0844 -2.02399,1.34331 -4.1942,3.17274 -2.17021,1.82943 -4.0475,3.32624 -4.17175,3.32624 -0.12425,0 -0.81674,-0.60199 -1.53888,-1.33774 -0.72213,-0.73576 -1.94625,-1.7596 -2.72027,-2.27521 -1.02624,-0.68363 -1.36247,-1.05427 -1.24176,-1.36884 0.091,-0.23726 1.23035,-2.29351 2.53178,-4.56946 1.30143,-2.27594 2.36624,-4.25971 2.36624,-4.40836 0,-0.57587 -8.42609,-3.76748 -9.94643,-3.76748 -0.19923,0 -0.42369,0.26789 -0.49881,0.59532 -0.17314,0.75474 -1.72559,9.47549 -1.72559,9.69338 0,0.0893 -1.70924,0.16235 -3.7983,0.16235 h -3.7983 l -0.86918,-4.8948 c -0.47804,-2.69213 -0.92575,-5.04642 -0.99489,-5.23175 -0.16341,-0.43795 -1.35581,-0.23161 -4.35363,0.75336 -2.2983,0.75514 -6.02945,2.48586 -6.02945,2.7968 0,0.15756 4.20263,7.57031 4.94839,8.72815 0.33939,0.52692 0.28723,0.60892 -0.7881,1.23911 -0.63335,0.37116 -1.97436,1.43921 -2.98003,2.37343 l -1.82849,1.69858 -3.84308,-3.21733 c -2.11369,-1.76954 -3.98272,-3.30122 -4.15342,-3.40374 -0.46719,-0.2806 -3.10141,3.48677 -4.64464,6.6426 -0.73207,1.49705 -1.2859,2.76098 -1.23073,2.80872 0.0552,0.0478 2.18268,0.88542 4.72782,1.8615 2.54513,0.97608 4.6638,1.81099 4.70816,1.85535 0.0444,0.0444 -0.24447,0.8928 -0.64184,1.88542 -0.39738,0.99262 -0.91299,2.64426 -1.14581,3.6703 l -0.4233,1.86555 -4.95143,0.072 c -3.93918,0.0573 -4.95142,0.14484 -4.95142,0.42836 0,1.70598 2.01997,9.63931 2.61735,10.27949 0.10085,0.10808 2.31416,-0.57653 4.91847,-1.52135 2.60431,-0.94482 4.88245,-1.71786 5.06254,-1.71786 0.18009,0 0.61656,0.62508 0.96994,1.38906 0.35338,0.76399 1.18694,2.19567 1.85235,3.18152 l 1.20985,1.79245 -4.11918,3.48265 -4.11918,3.48265 2.22007,2.14622 c 1.95792,1.89278 5.83252,4.89837 6.31464,4.89837 0.0963,0 1.11236,-1.63711 2.25788,-3.63802 1.14552,-2.00092 2.35643,-4.08007 2.6909,-4.62035 l 0.60814,-0.98233 1.63739,0.77436 c 0.90056,0.4259 2.44968,0.98362 3.44249,1.23937 1.4652,0.37744 1.8051,0.56354 1.8051,0.98829 0,0.2878 -0.36635,2.65336 -0.81411,5.2568 -0.44776,2.60343 -0.7565,4.79113 -0.68607,4.86155 0.16877,0.16878 3.3954,0.53945 5.079,0.58347 0.73142,0.0191 2.33593,-0.0914 3.56558,-0.24556 z"
      />
    </g>
  </g>
</svg>
