<svg viewBox="0 0 455 512" fill="none" xmlns="http://www.w3.org/2000/svg">
<mask id="phonegapmask0_1_70" style="mask-type:luminance" maskUnits="userSpaceOnUse" x="0" y="0" width="455" height="513">
<path d="M435.279 113.285L247.191 4.69275C236.356 -1.56425 218.624 -1.56425 207.789 4.69275L19.701 113.285C8.865 119.54 0 134.897 0 147.409V364.594C0.843 379.165 8.286 391.233 19.701 398.717L207.789 507.309C218.624 513.566 236.356 513.566 247.191 507.309L435.279 398.717C447.527 390.571 454.498 378.309 454.98 364.594V147.409C454.54 134.244 446.657 120.966 435.279 113.285Z" fill="white"/>
</mask>
<g mask="url(#phonegapmask0_1_70)">
<path d="M222.588 124.488H490.052V397.981H222.588V124.488Z" fill="url(#phonegappaint0_linear_1_70)"/>
<path d="M490.052 407.803L145.845 208.631H-29.9109V538.354H490.052V407.803Z" fill="url(#phonegappaint1_linear_1_70)"/>
<path d="M-29.9109 405.094L490.052 104.209V-14.5122H-29.9109V405.094Z" fill="url(#phonegappaint2_linear_1_70)"/>
</g>
<path d="M75.8299 256.002C74.9389 107.913 273.289 42.5228 358.826 180.124L293.191 218.104C253.569 152.57 155.19 176.003 151.659 256.001C152.719 329.73 249.413 363.979 293.195 293.894L358.83 331.873C283.448 462.736 79.6319 415.654 75.8299 256.002ZM326 213.001H338.5L329.959 295.501H317.224L326 213.001ZM352.776 213.001H365.276L356.735 295.501H344L352.776 213.001ZM312 232.593H374.5V244.665H312V232.593ZM308.5 262.001H371V274.073H308.5V262.001Z" fill="white"/>
<defs>
<linearGradient id="phonegappaint0_linear_1_70" x1="314.176" y1="207.292" x2="443.464" y2="372.773" gradientUnits="userSpaceOnUse">
<stop stop-color="#3B009B"/>
<stop offset="1" stop-color="#390086"/>
</linearGradient>
<linearGradient id="phonegappaint1_linear_1_70" x1="115.288" y1="326.164" x2="252.741" y2="502.095" gradientUnits="userSpaceOnUse">
<stop stop-color="#340084"/>
<stop offset="1" stop-color="#290064"/>
</linearGradient>
<linearGradient id="phonegappaint2_linear_1_70" x1="121.095" y1="55.8082" x2="261.773" y2="235.868" gradientUnits="userSpaceOnUse">
<stop stop-color="#A47EDE"/>
<stop offset="1" stop-color="#9866D3"/>
</linearGradient>
</defs>
</svg>
