<?xml version="1.0" encoding="UTF-8" standalone="no"?>
<!-- Created with Inkscape (http://www.inkscape.org/) -->

<svg
   xmlns:dc="http://purl.org/dc/elements/1.1/"
   xmlns:cc="http://creativecommons.org/ns#"
   xmlns:rdf="http://www.w3.org/1999/02/22-rdf-syntax-ns#"
   xmlns:svg="http://www.w3.org/2000/svg"
   xmlns="http://www.w3.org/2000/svg"
   xmlns:sodipodi="http://sodipodi.sourceforge.net/DTD/sodipodi-0.dtd"
   xmlns:inkscape="http://www.inkscape.org/namespaces/inkscape"
  
  
   viewBox="0 0 317.5 317.49998"
   version="1.1"
   id="svg8"
   inkscape:version="0.92.4 (5da689c313, 2019-01-14)"
   sodipodi:docname="discordjs.svg">
  <defs
     id="defs2" />
  <sodipodi:namedview
     id="base"
     pagecolor="#ffffff"
     bordercolor="#666666"
     borderopacity="1.0"
     inkscape:pageopacity="0.0"
     inkscape:pageshadow="2"
     inkscape:zoom="0.49497475"
     inkscape:cx="993.01187"
     inkscape:cy="700.95442"
     inkscape:document-units="mm"
     inkscape:current-layer="layer1"
     showgrid="false"
     inkscape:window-width="1920"
     inkscape:window-height="1027"
     inkscape:window-x="-8"
     inkscape:window-y="-8"
     inkscape:window-maximized="1" />
  <metadata
     id="metadata5">
    <rdf:RDF>
      <cc:Work
         rdf:about="">
        <dc:format>image/svg+xml</dc:format>
        <dc:type
           rdf:resource="http://purl.org/dc/dcmitype/StillImage" />
        <dc:title></dc:title>
      </cc:Work>
    </rdf:RDF>
  </metadata>
  <g
     inkscape:label="Layer 1"
     inkscape:groupmode="layer"
     id="layer1"
     transform="translate(-280.14488,-202.57877)">
    <g
       id="g1116"
       transform="translate(-96.383929,82.39881)">
      <path
         style="fill:#cacaca;stroke-width:1"
         d="m 376.52881,278.92996 v -158.75 h 158.75 158.75 v 158.75 158.75 h -158.75 -158.75 z"
         id="path1124"
         inkscape:connector-curvature="0" />
      <path
         style="fill:#2db4e3;stroke-width:1"
         d="m 376.52881,278.92996 v -158.75 h 158.75 158.75 v 158.75 158.75 h -158.75 -158.75 z m 88.37083,56.34209 c 7.51011,-0.68353 15.10375,-2.43464 20.86191,-4.8108 1.92112,-0.79277 1.9422,-0.81209 1.77531,-1.62669 -1.20255,-5.86976 -0.44156,-11.13697 2.31447,-16.01968 1.33036,-2.35693 4.42494,-5.62106 6.74009,-7.10939 5.32285,-3.42187 11.17826,-4.28438 18.03152,-2.65608 0.79995,0.19006 4.19627,-9.32886 5.58487,-15.65278 2.55523,-11.63698 2.76599,-27.45295 0.53063,-39.81979 -3.21989,-17.81364 -11.89504,-31.55302 -25.14713,-39.8271 -7.49577,-4.68007 -16.44032,-7.70716 -27.51667,-9.31242 -3.61162,-0.52342 -5.1816,-0.56223 -26.78906,-0.66224 l -22.9526,-0.10624 v 68.94097 68.94098 l 21.76198,-7.9e-4 c 13.03261,-5.3e-4 22.98249,-0.11199 24.80468,-0.27784 z m -22.11536,-19.54296 c -0.0603,-0.0606 -0.10964,-22.18916 -0.10964,-49.17451 v -49.06427 l 9.06198,0.12295 c 7.85728,0.10661 9.4986,0.20135 12.3463,0.71267 4.70787,0.84531 8.16406,1.92993 11.80763,3.70546 11.7063,5.70453 18.34923,16.20952 20.67131,32.68919 0.75097,5.32958 0.67674,18.41519 -0.13433,23.68021 -1.11229,7.22036 -3.0675,13.4116 -5.79052,18.33589 -4.60457,8.32687 -12.09002,14.26476 -21.39794,16.97407 -5.37726,1.5652 -7.47462,1.80491 -17.26052,1.97276 -4.99655,0.0857 -9.13397,0.10622 -9.19427,0.0456 z"
         id="path1122"
         inkscape:connector-curvature="0" />
      <path
         style="fill:#399766;stroke-width:1"
         d="m 376.52881,278.92996 v -158.75 h 158.75 158.75 v 158.75 158.75 h -158.75 -158.75 z m 140.49375,85.4234 c 12.27501,-1.5414 22.32238,-7.66962 29.04262,-17.71406 3.94325,-5.8938 6.88032,-14.44509 7.7291,-22.50333 0.16134,-1.53174 0.26253,-21.26758 0.26536,-51.75717 l 0.005,-49.28137 -11.84011,0.0689 -11.8401,0.0689 -0.15324,49.87396 c -0.15083,49.09305 -0.21262,52.43864 -1.02628,55.5625 -1.89593,7.27901 -7.1087,12.89295 -14.21156,15.30528 -5.34732,1.81609 -12.00166,1.18183 -17.02038,-1.6223 -3.18685,-1.7806 -5.38415,-3.81785 -7.48106,-6.93611 -0.58714,-0.87312 -1.08562,-1.6141 -1.10773,-1.64661 -0.0221,-0.0325 -0.98594,0.34706 -2.14185,0.84349 -2.76241,1.18638 -8.5978,2.83957 -13.21415,3.74363 -2.03729,0.39899 -3.75093,0.76094 -3.80808,0.80435 -0.24471,0.18589 1.17439,3.47564 2.43777,5.65121 6.24376,10.7519 18.28172,18.40182 31.22905,19.84555 2.31842,0.25853 10.0773,0.0773 13.13605,-0.30676 z m 104.11354,-0.43969 c 21.46083,-3.80341 35.36863,-16.70061 37.99253,-35.23182 0.42661,-3.01285 0.14446,-9.91226 -0.54621,-13.35666 -1.44748,-7.21861 -4.22695,-12.36704 -9.50875,-17.61304 -4.8999,-4.86668 -10.27329,-8.13058 -20.26465,-12.30911 -9.11421,-3.81171 -12.50804,-5.23301 -14.2875,-5.9835 -1.01865,-0.42961 -3.04271,-1.26543 -4.49792,-1.85739 -7.60272,-3.09268 -11.66534,-5.39993 -14.58517,-8.28326 -3.13752,-3.0983 -4.33254,-5.80987 -4.33254,-9.8308 0,-2.84688 0.36988,-4.54843 1.51147,-6.95327 3.15699,-6.6504 12.3122,-10.28023 23.446,-9.29581 4.09708,0.36225 6.31056,0.79395 9.70295,1.89237 4.80378,1.55542 9.56639,4.10952 13.99983,7.50783 1.42723,1.094 2.70091,1.98366 2.83037,1.97703 0.24704,-0.0127 12.40626,-15.04988 12.40626,-15.34273 0,-0.0929 -1.23084,-1.25668 -2.73524,-2.58619 -8.38091,-7.40679 -19.87415,-12.5837 -31.92518,-14.3801 -3.55091,-0.52933 -12.49316,-0.45704 -16.25866,0.13143 -9.94314,1.55389 -17.60358,4.83691 -24.45744,10.48167 -6.39266,5.26492 -10.74083,12.46117 -12.52637,20.73122 -0.6676,3.09212 -0.66113,11.31514 0.0114,14.4705 2.79801,13.12795 11.3437,22.30799 27.16963,29.18648 4.31984,1.87755 11.22794,4.9064 15.21354,6.67036 1.74625,0.77287 4.52583,1.95762 6.17684,2.63279 7.62029,3.11626 12.89882,6.20997 15.34064,8.99104 1.35041,1.53804 2.68758,4.22267 3.12375,6.27155 0.49533,2.32679 0.35151,7.07213 -0.27376,9.03251 -1.66818,5.23013 -5.89533,9.09515 -12.18383,11.14006 -4.88564,1.58873 -13.44599,1.91505 -19.32739,0.73676 -9.22946,-1.84905 -18.13146,-6.35854 -26.40854,-13.37779 -1.3062,-1.10771 -1.59059,-1.24817 -1.88898,-0.93295 -0.1932,0.20408 -2.22333,2.57372 -4.51139,5.26586 -2.28807,2.69214 -5.06943,5.95892 -6.18081,7.25952 -1.11138,1.30061 -2.24842,2.65369 -2.52674,3.00685 l -0.50605,0.64212 1.03521,0.96562 c 9.62333,8.97638 21.50567,15.09782 34.44888,17.74708 5.6309,1.15255 7.5863,1.30516 15.40196,1.20206 5.45804,-0.072 7.65628,-0.20676 9.92188,-0.60829 z M 464.89964,335.27205 c 7.51011,-0.68353 15.10375,-2.43464 20.86191,-4.8108 1.92112,-0.79277 1.9422,-0.81209 1.77531,-1.62669 -1.20255,-5.86976 -0.44156,-11.13697 2.31447,-16.01968 1.33036,-2.35693 4.42494,-5.62106 6.74009,-7.10939 5.32285,-3.42187 11.17826,-4.28438 18.03152,-2.65608 0.79995,0.19006 4.19627,-9.32886 5.58487,-15.65278 2.55523,-11.63698 2.76599,-27.45295 0.53063,-39.81979 -3.21989,-17.81364 -11.89504,-31.55302 -25.14713,-39.8271 -7.49577,-4.68007 -16.44032,-7.70716 -27.51667,-9.31242 -3.61162,-0.52342 -5.1816,-0.56223 -26.78906,-0.66224 l -22.9526,-0.10624 v 68.94097 68.94098 l 21.76198,-7.9e-4 c 13.03261,-5.3e-4 22.98249,-0.11199 24.80468,-0.27784 z m -22.11536,-19.54296 c -0.0603,-0.0606 -0.10964,-22.18916 -0.10964,-49.17451 v -49.06427 l 9.06198,0.12295 c 7.85728,0.10661 9.4986,0.20135 12.3463,0.71267 4.70787,0.84531 8.16406,1.92993 11.80763,3.70546 11.7063,5.70453 18.34923,16.20952 20.67131,32.68919 0.75097,5.32958 0.67674,18.41519 -0.13433,23.68021 -1.11229,7.22036 -3.0675,13.4116 -5.79052,18.33589 -4.60457,8.32687 -12.09002,14.26476 -21.39794,16.97407 -5.37726,1.5652 -7.47462,1.80491 -17.26052,1.97276 -4.99655,0.0857 -9.13397,0.10622 -9.19427,0.0456 z"
         id="path1120"
         inkscape:connector-curvature="0" />
      <path
         style="fill:#292e34;stroke-width:1"
         d="m 376.52881,278.92996 v -158.75 h 158.75 158.75 v 158.75 158.75 h -158.75 -158.75 z m 143.50407,85.08496 c 13.02057,-2.66757 22.77893,-10.00219 28.55938,-21.46592 3.21907,-6.38402 4.90175,-12.70874 5.48704,-20.62425 0.17851,-2.41422 0.24662,-20.28919 0.19556,-51.32916 l -0.0783,-47.62501 h -11.90625 -11.90625 l -0.15073,49.3448 c -0.13203,43.22152 -0.20361,49.75519 -0.57681,52.65208 -0.52196,4.05166 -0.96035,5.54011 -2.53008,8.59035 -0.9871,1.91811 -1.70439,2.85631 -3.7442,4.89735 -4.80775,4.81066 -9.20097,6.53239 -16.01693,6.27715 -3.67439,-0.1376 -5.48917,-0.59527 -8.59896,-2.16856 -3.47658,-1.75886 -7.09644,-5.03698 -8.51516,-7.7113 -0.33663,-0.63456 -0.76762,-1.15374 -0.95776,-1.15374 -0.19013,0 -0.84518,0.22584 -1.45566,0.50187 -3.29494,1.48979 -10.36704,3.49268 -15.48967,4.38682 -1.22731,0.21422 -2.29154,0.44957 -2.36497,0.523 -0.30148,0.30148 1.98725,5.08878 3.58085,7.49 3.05994,4.61069 6.98062,8.45716 11.74306,11.5208 5.49598,3.53551 10.19151,5.27264 17.95723,6.64335 0.3638,0.0642 3.51895,0.0789 7.01145,0.0326 5.61925,-0.0745 6.7421,-0.1645 9.7572,-0.78222 z m 98.58968,0.37583 c 15.54094,-2.00447 27.67415,-8.89863 34.87952,-19.81877 3.34177,-5.06465 5.55011,-11.98512 5.96037,-18.67848 0.0624,-1.01864 0.01,-3.42061 -0.11721,-5.33771 -1.07413,-16.22741 -10.06845,-26.95957 -29.08101,-34.69993 -1.09141,-0.44433 -2.81782,-1.15945 -3.83646,-1.58915 -7.7881,-3.28528 -10.79233,-4.54394 -14.02292,-5.87507 -5.17789,-2.13349 -5.48482,-2.26689 -8.58112,-3.72952 -10.0138,-4.73032 -13.98203,-10.72826 -12.31807,-18.61862 1.43919,-6.82454 7.47102,-11.45719 16.37714,-12.57821 3.163,-0.39813 9.74982,-0.19948 12.59184,0.37975 6.73461,1.37257 12.01943,3.7163 17.96846,7.9687 1.5152,1.08308 3.01115,2.20996 3.32434,2.50418 0.31318,0.29423 0.64203,0.53496 0.73078,0.53496 0.28043,0 12.63684,-15.20999 12.63684,-15.5552 0,-0.4188 -3.13716,-3.24902 -5.89087,-5.3145 -8.58949,-6.44273 -18.09032,-10.29367 -29.16642,-11.82193 -4.4442,-0.6132 -13.5336,-0.41115 -17.85938,0.39701 -8.27617,1.54618 -15.62068,4.67802 -21.43296,9.13943 -4.36544,3.35084 -8.52624,8.42303 -10.8555,13.23331 -2.6033,5.37621 -3.51234,9.48487 -3.51234,15.875 0,6.1738 0.878,10.33285 3.24978,15.39411 2.9489,6.29277 8.66344,12.40191 15.5974,16.67441 1.90176,1.17181 7.12709,3.75182 10.86821,5.36617 2.11005,0.91052 4.3127,1.86769 4.89479,2.12704 4.95145,2.20616 10.61175,4.67235 13.36146,5.82158 10.50655,4.39116 15.13679,7.28726 17.61147,11.01553 3.76148,5.66691 3.08285,14.23802 -1.52665,19.28154 -3.51656,3.84768 -8.74749,6.04041 -16.10199,6.74973 -8.12968,0.78409 -16.74624,-1.01955 -25.21041,-5.27708 -4.73623,-2.38236 -8.30866,-4.7053 -12.0588,-7.84115 -2.26894,-1.89727 -2.79216,-2.22559 -3.07902,-1.93211 -0.19008,0.19446 -1.09758,1.25613 -2.01666,2.35926 -0.91909,1.10313 -3.87372,4.59568 -6.56586,7.76123 -2.69214,3.16555 -4.93342,5.92483 -4.98063,6.13174 -0.0472,0.20691 0.60275,1.0006 1.44434,1.76376 0.84159,0.76317 1.72549,1.57801 1.96422,1.81076 0.23874,0.23275 1.62542,1.3254 3.08151,2.42812 7.45005,5.64198 16.86851,10.15334 25.74705,12.33259 2.85939,0.70185 7.94396,1.57543 11.50497,1.97668 1.79673,0.20245 12.04447,-0.0528 14.41979,-0.35916 z M 513.20393,339.76063 c 2.48219,-0.76497 3.64169,-1.38058 5.67479,-3.01289 2.70237,-2.16965 4.49263,-4.78289 5.71397,-8.3407 0.66812,-1.94627 0.69629,-7.41061 0.0487,-9.44394 -1.84872,-5.80443 -6.47617,-10.26217 -12.19491,-11.74767 -5.06902,-1.31673 -10.85265,0.0316 -15.02318,3.50235 -5.86281,4.87908 -7.64216,13.35794 -4.23971,20.2028 2.60938,5.2494 6.7606,8.28244 12.99108,9.49179 1.34206,0.2605 5.24281,-0.10117 7.02929,-0.65174 z m -46.18762,-4.56943 c 5.98799,-0.78654 10.85946,-1.86636 15.47812,-3.43092 4.13376,-1.4003 5.45823,-2.03127 5.30809,-2.52876 -0.84702,-2.80661 -0.92526,-7.71008 -0.17013,-10.66259 1.08117,-4.22737 3.0184,-7.46468 6.33258,-10.58242 4.73317,-4.45263 11.43581,-6.50778 17.63363,-5.40678 1.30969,0.23265 2.62971,0.49231 2.93338,0.57702 0.4958,0.13829 0.68921,-0.19218 1.89561,-3.23899 2.60343,-6.57505 4.08932,-12.34532 5.14866,-19.99421 0.52964,-3.82423 0.59501,-5.37115 0.58983,-13.95817 -0.006,-10.30118 -0.16727,-12.2924 -1.58372,-19.57917 -5.20777,-26.79079 -22.45377,-43.25667 -49.86188,-47.60636 -6.16009,-0.97761 -8.95988,-1.07515 -30.89011,-1.07607 l -21.49739,-9e-4 v 69.07571 69.07571 l 22.68802,-0.11434 c 19.04302,-0.096 23.21936,-0.18413 25.99531,-0.54876 z m -24.07708,-68.59764 v -49.11348 l 8.53281,0.14055 c 9.11549,0.15015 11.8135,0.42345 16.7349,1.69516 10.9184,2.82138 18.67248,9.02766 23.55688,18.85469 7.14949,14.3842 7.19617,41.0052 0.0981,55.97302 -6.00761,12.66844 -16.63191,19.68723 -32.21587,21.28298 -1.50701,0.15431 -5.88256,0.28056 -9.72344,0.28056 h -6.98342 z"
         id="path1118"
         inkscape:connector-curvature="0" />
    </g>
  </g>
</svg>
