<svg version="1.1" viewBox="0 0 26.4 26.4" xmlns="http://www.w3.org/2000/svg">
  <g transform="translate(-117 -128)">
    <circle cx="130" cy="141" r="13.2" style="fill-rule:evenodd;fill:#2b2e3a;stroke-width:.68"/>
    <path d="m127 135c-2.68-0.489-4.81 0.0228-5.65 1.49-0.631 1.09-0.451 2.54 0.438 4.09a0.275 0.275 0 1 0 0.477-0.274c-0.8-1.4-0.956-2.65-0.438-3.54 0.703-1.22 2.6-1.67 5.08-1.22a0.275 0.275 0 0 0 0.0987-0.542zm-3.82 7.46c1.09 1.19 2.5 2.31 4.1 3.24 3.89 2.25 8.04 2.85 10.1 1.46a0.275 0.275 0 1 0-0.31-0.455c-1.83 1.25-5.77 0.676-9.5-1.48-1.56-0.901-2.93-1.98-3.97-3.13a0.275 0.275 0 1 0-0.407 0.371z" style="fill:#9feaf9;stroke-width:.265"/>
    <path d="m137 142c1.76-2.08 2.37-4.16 1.53-5.63-0.621-1.08-1.93-1.64-3.68-1.67a0.275 0.275 0 0 0-7e-3 0.55c1.57 0.0204 2.7 0.51 3.21 1.39 0.701 1.21 0.154 3.08-1.47 5a0.275 0.275 0 1 0 0.42 0.356zm-4.52-7.04c-1.59 0.341-3.28 1.01-4.91 1.94-4.02 2.32-6.64 5.74-6.28 8.22a0.275 0.275 0 1 0 0.545-0.08c-0.323-2.2 2.16-5.45 6.01-7.67 1.58-0.91 3.21-1.55 4.75-1.88a0.275 0.275 0 1 0-0.115-0.538z" style="fill:#9feaf9;stroke-width:.265"/>
    <path d="m126 147c0.919 2.57 2.42 4.15 4.11 4.15 1.23 0 2.37-0.84 3.26-2.32a0.275 0.275 0 1 0-0.472-0.284c-0.799 1.33-1.78 2.05-2.79 2.05-1.4 0-2.75-1.41-3.59-3.78a0.275 0.275 0 1 0-0.518 0.185zm8.39-0.502c0.476-1.52 0.731-3.27 0.731-5.1 0-4.56-1.6-8.49-3.87-9.5a0.275 0.275 0 0 0-0.223 0.503c2.03 0.9 3.54 4.63 3.54 9 0 1.77-0.247 3.47-0.706 4.94a0.275 0.275 0 1 0 0.525 0.164zm5.18-0.27c0-0.728-0.59-1.32-1.32-1.32-0.728 0-1.32 0.59-1.32 1.32s0.59 1.32 1.32 1.32c0.728 0 1.32-0.59 1.32-1.32zm-0.55 0a0.767 0.767 0 1 1-1.53 0 0.767 0.767 0 0 1 1.53 0zm-17.1 1.32c0.728 0 1.32-0.59 1.32-1.32s-0.59-1.32-1.32-1.32c-0.727 0-1.32 0.59-1.32 1.32s0.59 1.32 1.32 1.32zm0-0.55a0.767 0.767 0 1 1 0-1.53 0.767 0.767 0 0 1 0 1.53z" style="fill:#9feaf9;stroke-width:.265"/>
    <path d="m130 133c0.728 0 1.32-0.59 1.32-1.32s-0.59-1.32-1.32-1.32-1.32 0.59-1.32 1.32 0.59 1.32 1.32 1.32zm0-0.55a0.767 0.767 0 1 1 0-1.53 0.767 0.767 0 0 1 0 1.53zm0.201 9.64c-0.515 0.111-1.02-0.216-1.13-0.73a0.953 0.953 0 0 1 0.73-1.13c0.515-0.111 1.02 0.216 1.13 0.73 0.111 0.515-0.216 1.02-0.73 1.13z" style="fill:#9feaf9;stroke-width:.265"/>
  </g>
</svg>
