<?xml version="1.0" encoding="UTF-8" standalone="no"?>
<!-- Created with Inkscape (http://www.inkscape.org/) -->

<svg
   xmlns:dc="http://purl.org/dc/elements/1.1/"
   xmlns:cc="http://creativecommons.org/ns#"
   xmlns:rdf="http://www.w3.org/1999/02/22-rdf-syntax-ns#"
   xmlns:svg="http://www.w3.org/2000/svg"
   xmlns="http://www.w3.org/2000/svg"
   xmlns:sodipodi="http://sodipodi.sourceforge.net/DTD/sodipodi-0.dtd"
   xmlns:inkscape="http://www.inkscape.org/namespaces/inkscape"
   width="100.34892mm"
   height="22.22522mm"
   viewBox="0 0 100.34892 22.225218"
   version="1.1"
   id="svg8"
   inkscape:version="0.92.4 (5da689c313, 2019-01-14)"
   sodipodi:docname="express.svg">
  <defs
     id="defs2" />
  <sodipodi:namedview
     id="base"
     pagecolor="#ffffff"
     bordercolor="#666666"
     borderopacity="1.0"
     inkscape:pageopacity="0.0"
     inkscape:pageshadow="2"
     inkscape:zoom="1.979899"
     inkscape:cx="200.6045"
     inkscape:cy="52.622293"
     inkscape:document-units="mm"
     inkscape:current-layer="layer1"
     showgrid="false"
     inkscape:window-width="1920"
     inkscape:window-height="1027"
     inkscape:window-x="-8"
     inkscape:window-y="-8"
     inkscape:window-maximized="1" />
  <metadata
     id="metadata5">
    <rdf:RDF>
      <cc:Work
         rdf:about="">
        <dc:format>image/svg+xml</dc:format>
        <dc:type
           rdf:resource="http://purl.org/dc/dcmitype/StillImage" />
        <dc:title></dc:title>
      </cc:Work>
    </rdf:RDF>
  </metadata>
  <g
     inkscape:label="Layer 1"
     inkscape:groupmode="layer"
     id="layer1"
     transform="translate(-209.47913,-227.68529)">
    <path
       style="fill:#3f4d58;stroke-width:1"
       d="m 240.28896,238.9303 c 0,-7.14375 0.0924,-10.98021 0.26459,-10.98021 0.15578,0 0.26697,0.95196 0.27039,2.3151 l 0.006,2.31511 0.48539,-1.06858 c 0.61147,-1.34613 2.59129,-3.10804 3.9498,-3.51506 2.31495,-0.69358 4.71471,-0.20004 6.54611,1.34629 2.79964,2.36384 3.3349,8.73902 1.03908,12.37583 -1.19251,1.88905 -3.10724,2.90006 -5.49236,2.90006 -2.7151,0 -4.7026,-1.1502 -5.87399,-3.3994 l -0.64102,-1.23081 -0.0123,4.96094 c -0.008,3.12269 -0.11035,4.96094 -0.27689,4.96094 -0.17214,0 -0.26459,-3.83646 -0.26459,-10.98021 z m 9.70772,4.48915 c 2.05506,-1.02407 3.3283,-3.14644 3.66314,-6.1061 0.48389,-4.27697 -1.63748,-8.1088 -4.87337,-8.80277 -5.10977,-1.09585 -8.98812,3.97248 -7.71819,10.08635 0.91712,4.41532 5.15362,6.70359 8.92842,4.82252 z m -36.86374,0.54852 c -2.52452,-1.28082 -3.62842,-3.56507 -3.6517,-7.55629 -0.0153,-2.62916 0.032,-2.88124 0.8556,-4.55465 0.49605,-1.00789 1.28797,-2.11445 1.83727,-2.56723 3.10694,-2.561 7.95805,-1.91411 10.00892,1.33467 0.72408,1.14702 1.43718,3.58914 1.43718,4.92183 v 0.87045 h -6.83537 -6.83538 l 0.22495,1.64484 c 0.6387,4.67027 3.83576,6.85659 8.36038,5.71728 1.59675,-0.40207 3.57955,-2.31287 3.92773,-3.78512 0.31499,-1.33189 1.05475,-1.67695 0.79599,-0.37129 -0.29124,1.46964 -1.53341,3.19876 -2.90875,4.04907 -1.10031,0.68027 -1.58169,0.79994 -3.56488,0.88624 -2.05774,0.0895 -2.43213,0.0291 -3.65194,-0.5898 z m 9.64578,-9.82578 c -0.29627,-1.88932 -0.98982,-3.24091 -2.21502,-4.31665 -1.27685,-1.12109 -2.0418,-1.39564 -3.95495,-1.41951 -1.87061,-0.0233 -3.10452,0.48782 -4.46735,1.85065 -1.01217,1.01217 -2.01494,3.29272 -2.01494,4.5825 v 0.78382 h 6.44224 6.44224 z m 46.44589,9.82578 c -2.52452,-1.28082 -3.62842,-3.56507 -3.6517,-7.55629 -0.0154,-2.62916 0.032,-2.88124 0.8556,-4.55465 0.49605,-1.00789 1.28797,-2.11445 1.83726,-2.56723 3.10694,-2.561 7.95806,-1.91411 10.00893,1.33467 0.72408,1.14702 1.43718,3.58914 1.43718,4.92183 v 0.87045 h -6.83538 -6.83537 l 0.22494,1.64484 c 0.6387,4.67027 3.83576,6.85659 8.36038,5.71728 1.59676,-0.40207 3.57956,-2.31287 3.92774,-3.78512 0.31498,-1.33189 1.05475,-1.67695 0.79599,-0.37129 -0.29125,1.46964 -1.53341,3.19876 -2.90875,4.04907 -1.10031,0.68027 -1.5817,0.79994 -3.56488,0.88624 -2.05774,0.0895 -2.43213,0.0291 -3.65194,-0.5898 z m 9.64578,-9.82578 c -0.29627,-1.88932 -0.98982,-3.24091 -2.21502,-4.31665 -1.27685,-1.12109 -2.0418,-1.39564 -3.95495,-1.41951 -1.87062,-0.0233 -3.10452,0.48782 -4.46736,1.85065 -1.01216,1.01217 -2.01493,3.29272 -2.01493,4.5825 v 0.78382 h 6.44224 6.44224 z m 6.5351,10.05384 c -2.01323,-0.73691 -3.30661,-2.56137 -3.31088,-4.67042 -0.002,-1.13918 0.44892,-0.85217 0.63752,0.40549 0.23833,1.5893 1.00375,2.71383 2.32718,3.41901 1.60263,0.85396 5.11784,0.8525 6.7518,-0.003 2.55287,-1.3363 2.60414,-4.6949 0.0915,-5.99423 -0.39991,-0.2068 -1.91288,-0.67658 -3.36214,-1.04395 -3.27752,-0.83081 -4.29131,-1.25047 -5.0963,-2.10961 -0.86726,-0.92561 -1.03534,-2.8698 -0.35727,-4.13278 0.7094,-1.32135 2.85767,-2.38125 4.82647,-2.38125 3.76976,0 6.086,1.7867 6.086,4.69461 0,1.00006 -0.47104,0.66582 -0.66301,-0.47045 -0.20638,-1.22155 -1.14072,-2.45542 -2.34507,-3.09685 -1.20928,-0.64406 -4.56458,-0.59578 -5.72267,0.0823 -1.31364,0.7692 -1.97153,1.8024 -1.92297,3.01998 0.0835,2.09432 0.61591,2.48401 4.99742,3.65793 4.58021,1.22716 5.75838,2.01857 6.09524,4.09436 0.32109,1.97865 -1.15383,4.0816 -3.27598,4.67093 -1.40858,0.39116 -4.50875,0.31452 -5.75685,-0.14232 z m 15.34583,0 c -2.01323,-0.73691 -3.3066,-2.56137 -3.31088,-4.67042 -0.002,-1.13918 0.44893,-0.85217 0.63752,0.40549 0.23834,1.5893 1.00375,2.71383 2.32719,3.41901 1.60263,0.85396 5.11783,0.8525 6.7518,-0.003 2.55286,-1.3363 2.60414,-4.6949 0.0915,-5.99423 -0.39992,-0.2068 -1.91288,-0.67658 -3.36214,-1.04395 -3.27753,-0.83081 -4.29131,-1.25047 -5.0963,-2.10961 -0.86727,-0.92561 -1.03535,-2.8698 -0.35728,-4.13278 0.70941,-1.32135 2.85768,-2.38125 4.82648,-2.38125 3.76975,0 6.08599,1.7867 6.08599,4.69461 0,1.00006 -0.47103,0.66582 -0.66301,-0.47045 -0.20638,-1.22155 -1.14071,-2.45542 -2.34507,-3.09685 -1.20927,-0.64406 -4.56458,-0.59578 -5.72267,0.0823 -1.31363,0.7692 -1.97152,1.8024 -1.92297,3.01998 0.0835,2.09432 0.61591,2.48401 4.99742,3.65793 4.58021,1.22716 5.75839,2.01857 6.09524,4.09436 0.32109,1.97865 -1.15382,4.0816 -3.27598,4.67093 -1.40857,0.39116 -4.50874,0.31452 -5.75685,-0.14232 z m -76.07277,0.0221 c 0,-0.12687 2.08142,-2.8567 5.06432,-6.64194 l 1.27555,-1.61866 -2.90535,-3.86574 c -1.59795,-2.12616 -2.90536,-3.92785 -2.90536,-4.00375 0,-0.0759 0.14883,-0.13349 0.33073,-0.12799 0.1819,0.005 1.5733,1.68493 3.09199,3.73208 2.16759,2.92181 2.82178,3.64337 3.04271,3.35602 0.1548,-0.20133 1.3797,-1.81231 2.72202,-3.57995 1.34231,-1.76765 2.57062,-3.29428 2.72958,-3.39252 0.8927,-0.55172 0.25505,0.50544 -2.38606,3.95588 l -2.95243,3.85715 3.01518,3.90202 c 3.49477,4.52266 3.57877,4.6478 3.03586,4.52277 -0.21873,-0.0504 -1.67896,-1.75845 -3.24496,-3.79574 -1.566,-2.0373 -2.9289,-3.79722 -3.02866,-3.91094 -0.0998,-0.11373 -1.54089,1.57755 -3.20252,3.75839 -2.55324,3.35106 -3.6826,4.53265 -3.6826,3.85292 z m 33.07291,-8.066 c 0,-5.29167 0.0939,-8.20208 0.26459,-8.20208 0.15313,0 0.26703,0.86377 0.27039,2.05052 l 0.006,2.05052 0.48919,-1.07705 c 0.83576,-1.84014 3.10505,-3.28858 5.15227,-3.28858 1.10532,0 0.8092,0.46396 -0.42757,0.66991 -1.49157,0.24839 -2.92616,0.99876 -3.63704,1.9024 -1.3128,1.66874 -1.42096,2.25843 -1.53003,8.34176 -0.15782,8.80226 -0.58762,7.01219 -0.58762,-2.4474 z"
       id="path1077"
       inkscape:connector-curvature="0" />
  </g>
</svg>
