<?xml version="1.0" encoding="UTF-8" standalone="no"?>
<!-- Created with Inkscape (http://www.inkscape.org/) -->

<svg
   xmlns:dc="http://purl.org/dc/elements/1.1/"
   xmlns:cc="http://creativecommons.org/ns#"
   xmlns:rdf="http://www.w3.org/1999/02/22-rdf-syntax-ns#"
   xmlns:svg="http://www.w3.org/2000/svg"
   xmlns="http://www.w3.org/2000/svg"
   xmlns:sodipodi="http://sodipodi.sourceforge.net/DTD/sodipodi-0.dtd"
   xmlns:inkscape="http://www.inkscape.org/namespaces/inkscape"
  
  
   viewBox="0 0 68.93219 95.814302"
   version="1.1"
   id="svg8"
   inkscape:version="0.92.4 (5da689c313, 2019-01-14)"
   sodipodi:docname="firebase.svg">
  <defs
     id="defs2" />
  <sodipodi:namedview
     id="base"
     pagecolor="#ffffff"
     bordercolor="#666666"
     borderopacity="1.0"
     inkscape:pageopacity="0.0"
     inkscape:pageshadow="2"
     inkscape:zoom="0.98994949"
     inkscape:cx="134.26067"
     inkscape:cy="127.74789"
     inkscape:document-units="mm"
     inkscape:current-layer="layer1"
     showgrid="false"
     inkscape:window-width="1920"
     inkscape:window-height="1027"
     inkscape:window-x="-8"
     inkscape:window-y="-8"
     inkscape:window-maximized="1" />
  <metadata
     id="metadata5">
    <rdf:RDF>
      <cc:Work
         rdf:about="">
        <dc:format>image/svg+xml</dc:format>
        <dc:type
           rdf:resource="http://purl.org/dc/dcmitype/StillImage" />
        <dc:title></dc:title>
      </cc:Work>
    </rdf:RDF>
  </metadata>
  <g
     inkscape:label="Layer 1"
     inkscape:groupmode="layer"
     id="layer1"
     transform="translate(-499.03279,-280.76604)">
    <g
       id="g1184"
       transform="translate(92.742526,-0.66817382)">
      <path
         style="fill:#fdc827;stroke-width:1"
         d="m 437.98951,376.9209 c -0.8595,-0.27041 -30.9741,-17.76302 -31.69629,-18.41137 -0.21634,-0.19421 11.52502,-74.32363 12.01816,-75.87698 0.37743,-1.18891 1.0587,-1.51298 1.85662,-0.8832 0.36941,0.29157 3.10114,5.46586 6.70181,12.69418 3.34303,6.71109 6.14604,12.20198 6.22892,12.20198 0.0829,0 1.21806,-2.40484 2.52264,-5.34409 2.06981,-4.66335 2.48421,-5.40966 3.25318,-5.85876 0.82701,-0.483 0.93592,-0.48857 1.77053,-0.0906 0.80405,0.38343 1.32403,1.29113 5.42319,9.46693 l 4.53386,9.04285 6.12911,-6.10313 c 3.92963,-3.91297 6.39089,-6.16773 6.85863,-6.28317 1.00883,-0.24898 1.95865,0.43394 2.31318,1.66316 0.53649,1.86014 9.50564,54.69658 9.31646,54.88241 -0.64442,0.63302 -30.59868,18.38929 -31.67376,18.77555 -1.53068,0.54996 -4.02572,0.60574 -5.55624,0.12422 z"
         id="path1190"
         inkscape:connector-curvature="0" />
      <path
         style="fill:#fd9f01;stroke-width:1"
         d="m 406.44589,357.53369 c -0.0399,-1.37145 11.89625,-74.89137 12.24524,-75.42399 0.49834,-0.76057 1.07496,-0.76201 1.72579,-0.004 0.28124,0.32742 3.21257,6.03979 6.51407,12.69414 8.76193,17.47767 2.27312,13.52638 11.51423,1.06772 0.65711,-0.69945 1.69188,-0.7727 2.53853,-0.17969 0.35965,0.25191 2.38017,3.98145 5.06388,9.34707 l 4.46546,8.92791 -22.02654,22.02809 c -13.96723,13.96822 -22.03169,21.85062 -22.04064,21.54304 z"
         id="path1188"
         inkscape:connector-curvature="0"
         sodipodi:nodetypes="ccccccscscc" />
      <path
         style="fill:#f37e16;stroke-width:1"
         d="m 407.08132,356.65176 c 0.43183,-0.80036 6.42405,-12.2006 13.31605,-25.33385 6.89199,-13.13326 12.59969,-23.87865 12.68379,-23.87865 0.0841,0 1.93615,3.57286 4.11569,7.93969 l 3.96278,7.93968 -17.43173,17.39417 c -14.6859,14.65425 -17.30806,17.16495 -16.64658,15.93896 z"
         id="path1186"
         inkscape:connector-curvature="0" />
    </g>
  </g>
</svg>
