<?xml version="1.0" encoding="UTF-8" standalone="no"?>
<!-- Created with Inkscape (http://www.inkscape.org/) -->

<svg
   xmlns:dc="http://purl.org/dc/elements/1.1/"
   xmlns:cc="http://creativecommons.org/ns#"
   xmlns:rdf="http://www.w3.org/1999/02/22-rdf-syntax-ns#"
   xmlns:svg="http://www.w3.org/2000/svg"
   xmlns="http://www.w3.org/2000/svg"
   xmlns:sodipodi="http://sodipodi.sourceforge.net/DTD/sodipodi-0.dtd"
   xmlns:inkscape="http://www.inkscape.org/namespaces/inkscape"
  
  
   viewBox="0 0 423.30817 247.12081"
   version="1.1"
   id="svg8"
   inkscape:version="0.92.4 (5da689c313, 2019-01-14)"
   sodipodi:docname="gamemaker_studio.svg">
  <defs
     id="defs2" />
  <sodipodi:namedview
     id="base"
     pagecolor="#ffffff"
     bordercolor="#666666"
     borderopacity="1.0"
     inkscape:pageopacity="0.0"
     inkscape:pageshadow="2"
     inkscape:zoom="0.49497475"
     inkscape:cx="666.11321"
     inkscape:cy="538.79957"
     inkscape:document-units="mm"
     inkscape:current-layer="layer1"
     showgrid="false"
     inkscape:window-width="1920"
     inkscape:window-height="1027"
     inkscape:window-x="-8"
     inkscape:window-y="-8"
     inkscape:window-maximized="1" />
  <metadata
     id="metadata5">
    <rdf:RDF>
      <cc:Work
         rdf:about="">
        <dc:format>image/svg+xml</dc:format>
        <dc:type
           rdf:resource="http://purl.org/dc/dcmitype/StillImage" />
        <dc:title></dc:title>
      </cc:Work>
    </rdf:RDF>
  </metadata>
  <g
     inkscape:label="Layer 1"
     inkscape:groupmode="layer"
     id="layer1"
     transform="translate(-436.30621,-434.3979)">
    <path
       style="fill:#89c149;stroke-width:1"
       d="m 601.84432,681.24489 c -15.22816,-1.37054 -29.28757,-10.01482 -37.22529,-22.88754 -3.11611,-5.05346 -57.59529,-100.0169 -57.59529,-100.39519 0,-0.23096 5.52406,-10.05966 12.27568,-21.84157 6.75163,-11.7819 18.00662,-31.4229 25.0111,-43.64665 7.00447,-12.22375 17.35933,-30.29148 23.01079,-40.15052 L 577.5967,434.3979 h 36.6329 c 34.77898,0 36.62401,0.0234 36.45732,0.46302 -0.0966,0.25466 -14.83318,28.07275 -32.74802,61.81798 -29.17037,54.94666 -32.52608,61.38884 -32.12866,61.67944 0.24407,0.17847 7.27407,12.03796 15.62222,26.35442 l 15.17845,26.02994 21.80739,0.13229 21.80739,0.13229 -19.63742,35.18958 -19.63741,35.18959 -8.42196,0.031 c -4.63209,0.0172 -9.44014,-0.0606 -10.68458,-0.17259 z m 39.55499,-0.18827 c 0.16166,-0.42675 14.47628,-26.26061 53.25095,-96.10298 8.50288,-15.3157 14.84151,-27.01282 14.75718,-27.23255 -0.0813,-0.21184 -7.07887,-12.14889 -15.5502,-26.52679 l -15.40239,-26.14162 -22.45175,-0.006 c -17.85142,-0.004 -22.42554,-0.0733 -22.32387,-0.33624 0.0703,-0.1819 8.47043,-16.04698 18.66687,-35.25573 l 18.539,-34.925 9.07654,-0.0781 c 9.27577,-0.0799 14.4465,0.17471 18.26615,0.89929 5.66389,1.07442 12.86756,4.00426 17.61959,7.16616 4.91736,3.27189 9.57688,7.75412 12.87557,12.3856 1.40465,1.97218 59.57094,101.54021 60.05034,102.7931 0.093,0.24205 -13.8972,24.67957 -35.51888,62.04477 l -35.67174,61.64546 -38.17954,0.067 c -36.29576,0.0637 -38.17088,0.0442 -38.00382,-0.39687 z m 150.03258,0.0729 c -3.4882,-0.64313 -6.9752,-2.74805 -9.0292,-5.45045 -1.115,-1.46695 -20.4718,-34.98035 -20.4718,-35.44377 0,-0.19084 36.8393,-64.11138 37.1673,-64.4896 0.034,-0.0396 13.4379,23.35619 29.7856,51.99063 16.3478,28.63443 29.9499,52.44955 30.2269,52.92249 l 0.5037,0.8599 -33.1652,-0.0238 c -25.8708,-0.0185 -33.5725,-0.099 -35.0173,-0.36534 z m -295.2253,-141.7299 c -0.21806,-0.34297 -13.75818,-24.01937 -30.08917,-52.61422 -16.33098,-28.59484 -29.74593,-52.08337 -29.811,-52.19672 -0.0651,-0.11335 15.22014,-0.17288 33.96714,-0.13229 l 34.08545,0.0738 1.9784,0.72202 c 2.51196,0.91674 5.27811,2.80135 6.7328,4.58714 0.62301,0.76481 5.39887,8.81281 10.61303,17.88445 5.21416,9.07164 9.63393,16.73619 9.82171,17.03233 0.30669,0.48365 -0.0431,1.21038 -3.4383,7.14375 -15.23312,26.6209 -33.09246,57.70841 -33.2608,57.89662 -0.11153,0.1247 -0.3812,-0.0539 -0.59926,-0.39688 z"
       id="path1276"
       inkscape:connector-curvature="0" />
  </g>
  <style
     id="style1252"
     type="text/css">
	.st0{fill:#FF6B4A;}
</style>
</svg>
