<?xml version="1.0" encoding="UTF-8" standalone="no"?>
<!-- Created with Inkscape (http://www.inkscape.org/) -->

<svg
   xmlns:dc="http://purl.org/dc/elements/1.1/"
   xmlns:cc="http://creativecommons.org/ns#"
   xmlns:rdf="http://www.w3.org/1999/02/22-rdf-syntax-ns#"
   xmlns:svg="http://www.w3.org/2000/svg"
   xmlns="http://www.w3.org/2000/svg"
   xmlns:sodipodi="http://sodipodi.sourceforge.net/DTD/sodipodi-0.dtd"
   xmlns:inkscape="http://www.inkscape.org/namespaces/inkscape"
  
  
   viewBox="0 0 52.860851 52.930062"
   version="1.1"
   id="svg8"
   inkscape:version="0.92.4 (5da689c313, 2019-01-14)"
   sodipodi:docname="github_actions.svg">
  <defs
     id="defs2" />
  <sodipodi:namedview
     id="base"
     pagecolor="#ffffff"
     bordercolor="#666666"
     borderopacity="1.0"
     inkscape:pageopacity="0.0"
     inkscape:pageshadow="2"
     inkscape:zoom="0.7"
     inkscape:cx="576.5068"
     inkscape:cy="-30.935196"
     inkscape:document-units="mm"
     inkscape:current-layer="layer1"
     showgrid="false"
     inkscape:window-width="1920"
     inkscape:window-height="1027"
     inkscape:window-x="-8"
     inkscape:window-y="-8"
     inkscape:window-maximized="1" />
  <metadata
     id="metadata5">
    <rdf:RDF>
      <cc:Work
         rdf:about="">
        <dc:format>image/svg+xml</dc:format>
        <dc:type
           rdf:resource="http://purl.org/dc/dcmitype/StillImage" />
        <dc:title></dc:title>
      </cc:Work>
    </rdf:RDF>
  </metadata>
  <g
     inkscape:label="Layer 1"
     inkscape:groupmode="layer"
     id="layer1"
     transform="translate(-431.69621,-300.66008)">
    <path
       style="fill:#2f8ffd;stroke-width:1"
       d="m 454.8033,353.28036 c -2.23109,-0.64662 -4.49883,-2.93112 -5.13016,-5.16805 -0.2964,-1.05023 -0.35505,-1.09617 -1.58519,-1.24186 -2.74902,-0.32558 -5.56236,-2.45297 -6.83575,-5.16904 l -0.70061,-1.49436 -0.0819,-8.87902 -0.0819,-8.87901 -1.12208,-0.30011 c -3.00592,-0.80396 -6.07897,-3.9576 -7.08547,-7.27128 -2.54303,-8.37236 5.36116,-16.27655 13.73352,-13.73352 2.361,0.71713 4.54598,2.33164 5.90038,4.35988 1.43883,2.15466 1.90697,3.91681 1.79227,6.74639 -0.0774,1.90984 -0.23359,2.58951 -0.93646,4.07558 -1.5439,3.26421 -5.09004,5.9198 -8.31936,6.2301 -1.41019,0.1355 -1.54427,0.3759 -0.90218,1.61756 0.87501,1.69208 3.01679,2.9314 5.07236,2.93508 0.74544,10e-4 0.85629,-0.10759 1.1428,-1.12301 0.65889,-2.33516 2.9051,-4.56262 5.26082,-5.21691 3.84006,-1.06656 7.97626,1.04506 9.3324,4.7644 l 0.575,1.57699 h 2.17912 2.17912 l 0.31729,-1.12448 c 0.65889,-2.33516 2.9051,-4.56262 5.26082,-5.21691 5.12489,-1.42342 10.13548,2.64292 9.77008,7.92889 -0.28732,4.15656 -3.12853,6.89078 -7.37601,7.09827 -2.36953,0.11575 -3.75134,-0.37054 -5.47326,-1.92619 -1.08681,-0.98187 -2.43015,-3.28458 -2.43015,-4.16569 0,-0.4223 -0.25762,-0.47722 -2.23876,-0.47722 h -2.23876 l -0.27837,1.03382 c -0.39438,1.46459 -1.80825,3.45587 -3.04818,4.29302 -1.41215,0.95342 -2.63226,1.28892 -4.66204,1.28193 -1.99008,-0.007 -3.39966,-0.56749 -4.95135,-1.96935 -1.06745,-0.96438 -2.42629,-3.27869 -2.42629,-4.13235 0,-0.36555 -0.32659,-0.46653 -1.78593,-0.55222 -1.73171,-0.10167 -2.58279,-0.38993 -4.10105,-1.389 l -0.7276,-0.47879 0.0116,6.0497 c 0.0125,6.51594 0.12259,7.20467 1.4243,8.9113 0.75833,0.99421 2.80653,2.13133 4.31878,2.39768 0.7046,0.1241 0.85989,0.0665 0.85989,-0.31916 0,-0.87528 1.34688,-3.1804 2.43015,-4.15907 1.72192,-1.55565 3.10372,-2.04195 5.47326,-1.92619 4.24748,0.20749 7.08869,2.94171 7.37601,7.09826 0.3672,5.31203 -4.74791,9.4046 -9.89125,7.91394 z m 4.31403,-2.3901 c 2.11156,-0.65257 3.79644,-3.81739 3.27147,-6.14504 -0.527,-2.33661 -2.94824,-4.39872 -5.16846,-4.40182 -3.11275,-0.004 -5.68883,2.57173 -5.68448,5.68448 0.002,1.36307 1.16457,3.46226 2.35332,4.24894 1.74135,1.15238 3.00462,1.3006 5.22815,0.61344 z m -4.92761,-4.31865 c -0.17451,-0.21027 -0.27838,-0.65675 -0.23083,-0.99219 0.0683,-0.48203 0.25283,-0.60987 0.8802,-0.60987 0.62737,0 0.81187,0.12784 0.88021,0.60987 0.0947,0.66824 -0.35755,1.3745 -0.88021,1.3745 -0.18264,0 -0.47486,-0.17204 -0.64937,-0.38231 z m 4.35922,-0.0467 c -0.5157,-0.51569 -0.4383,-1.12826 0.19276,-1.52567 0.91675,-0.57733 1.94907,0.72361 1.24622,1.5705 -0.41647,0.50182 -0.90763,0.48652 -1.43898,-0.0448 z m 0.83718,-13.44415 c 2.33218,-1.08585 3.49704,-3.49605 2.94514,-6.09373 -0.39802,-1.87339 -2.18836,-3.66373 -4.06175,-4.06175 -2.59768,-0.55191 -5.00788,0.61296 -6.09373,2.94513 -1.04177,2.23751 -0.73464,4.30313 0.89906,6.04662 1.71338,1.82853 3.98415,2.24723 6.31128,1.16373 z m -5.1534,-3.13635 c -0.61238,-0.62397 -1.11342,-1.31453 -1.11342,-1.53458 0,-1.06237 1.45547,-1.38272 2.25721,-0.49681 0.48489,0.53579 0.494,0.5315 1.96691,-0.92604 0.81387,-0.80538 1.66622,-1.46433 1.89411,-1.46433 0.41947,0 1.2901,0.79343 1.2901,1.1757 0,0.49957 -4.094,4.38055 -4.621,4.38055 -0.31067,0 -1.05675,-0.50565 -1.67391,-1.13449 z m 24.99715,3.13635 c 2.33218,-1.08585 3.49704,-3.49605 2.94514,-6.09373 -0.39802,-1.87339 -2.18836,-3.66373 -4.06175,-4.06175 -2.59768,-0.55191 -5.00788,0.61296 -6.09373,2.94513 -1.04177,2.23751 -0.73464,4.30313 0.89906,6.04662 1.71338,1.82853 3.98415,2.24723 6.31128,1.16373 z m -5.1534,-3.13635 c -0.61238,-0.62397 -1.11342,-1.31453 -1.11342,-1.53458 0,-1.06237 1.45547,-1.38272 2.25721,-0.49681 0.48489,0.53579 0.494,0.5315 1.96691,-0.92604 0.81387,-0.80538 1.66622,-1.46433 1.89411,-1.46433 0.41947,0 1.2901,0.79343 1.2901,1.1757 0,0.49957 -4.094,4.38055 -4.621,4.38055 -0.31067,0 -1.05675,-0.50565 -1.67391,-1.13449 z m -27.44789,-10.48328 c 1.94164,-0.95587 3.10946,-2.17015 4.08272,-4.24515 1.0022,-2.13672 0.97987,-5.09331 -0.0544,-7.20736 -3.27963,-6.70331 -12.53102,-6.74852 -15.81526,-0.0773 -0.99412,2.01933 -1.14272,4.46897 -0.40458,6.66938 0.51453,1.53382 2.27341,3.66966 3.7979,4.61185 2.45172,1.51524 5.6295,1.60935 8.39366,0.24856 z m -7.77758,-2.8377 c -0.50417,-0.64095 -0.54837,-1.04709 -0.54837,-5.03911 0,-4.25721 0.0127,-4.35465 0.64944,-4.9914 1.04906,-1.04907 1.84344,-0.85074 5.3803,1.34327 3.38719,2.10117 4.02443,2.71201 4.02443,3.85769 0,1.02904 -0.5853,1.56906 -3.95941,3.65311 -3.49719,2.16006 -4.59029,2.39192 -5.54639,1.17644 z m 4.27152,-3.05117 c 1.20536,-0.75188 2.33791,-1.49777 2.51676,-1.65755 0.24632,-0.22005 -0.31489,-0.69057 -2.31421,-1.94023 -1.45167,-0.90736 -2.69933,-1.64974 -2.77258,-1.64974 -0.0733,0 -0.13319,1.48828 -0.13319,3.30729 0,1.95298 0.10476,3.30729 0.25582,3.30729 0.14071,0 1.24204,-0.61517 2.4474,-1.36706 z m 32.08949,39.75318 c -2.59618,-0.71709 -4.6109,-2.4959 -5.45788,-4.8188 -0.46507,-1.27551 -0.67405,-1.55274 -1.17052,-1.55274 -1.04931,0 -1.44139,-0.28788 -1.44139,-1.05833 0,-0.77571 0.39165,-1.05833 1.46665,-1.05833 0.50413,0 0.68308,-0.19856 0.89788,-0.99626 1.52463,-5.66202 8.82005,-7.51698 12.80569,-3.25602 1.60696,1.71797 2.09652,2.91257 2.12212,5.17832 0.0361,3.19133 -1.58654,5.77189 -4.41377,7.01957 -1.42605,0.62933 -3.60473,0.87516 -4.80878,0.54259 z m 3.29857,-2.17971 c 1.57396,-0.43148 3.2375,-2.09705 3.68271,-3.68718 1.03209,-3.68626 -1.60145,-7.1243 -5.45143,-7.11675 -2.84168,0.006 -5.37347,2.58308 -5.3605,5.45729 0.0172,3.7993 3.4319,6.36022 7.12922,5.34664 z"
       id="path1145"
       inkscape:connector-curvature="0" />
  </g>
</svg>
