<svg viewBox="0 0 80.744743 45.483298">
  <g
     transform="scale(0.8) translate(-301.16518,-534.7352)"
     style="transform-origin: 50% 50%;">
    <g
       transform="matrix(0.97,0,0,0.97,7.94,16.6)"
       style="fill-rule:evenodd">
      <path
         style="fill:#b3b3b3;stroke-width:0.99699998"
         d="m 356,572.35 h 20.6 v 7.55 h -29.3 v -41.7 h 8.66 v 34.1 z" />
      <path
         style="fill:#b3b3b3;stroke-width:0.99699998"
         d="m 324.2,557.45 h 17.3 v 22.5 h -5.77 l -0.866,-5.23 c -2.19,2.56 -5.37,6.33 -12.9,6.33 -9.98,0 -19,-7.2 -19,-21.8 0,-11.4 6.29,-22.1 20.3,-22.1 12.7,0 17.7,8.3 18.2,14 h -8.66 c 0,-1.62 -2.94,-6.85 -9.06,-6.85 -6.17,0 -11.9,4.3 -11.9,15 0,11.4 6.17,14.3 12.1,14.3 1.9,0 8.25,-0.755 10,-9.17 h -9.64 v -7.02 z"
      />
      <path
         style="fill:#ffffff"
         d="m 356,569.35 h 20.8 v 7.55 h -29.6 v -41.7 h 8.75 v 34.1 z" />
      <path
         style="fill:#ffffff"
         d="m 323.9,554.45 h 17.5 v 22.5 h -5.83 l -0.876,-5.22 c -2.22,2.55 -5.43,6.33 -13.1,6.33 -10.1,0 -19.3,-7.2 -19.3,-21.8 0,-11.4 6.36,-22.1 20.5,-22.1 12.8,0 17.9,8.3 18.4,14 h -8.75 c 0,-1.62 -2.98,-6.85 -9.16,-6.85 -6.24,0 -12,4.3 -12,15 0,11.4 6.24,14.3 12.2,14.3 1.92,0 8.34,-0.755 10.1,-9.17 h -9.74 v -7.02 z"
         />
      </g>
    </g>
  </g>
</svg>
