<?xml version="1.0" encoding="UTF-8" standalone="no"?>
<svg
   xmlns:dc="http://purl.org/dc/elements/1.1/"
   xmlns:cc="http://creativecommons.org/ns#"
   xmlns:rdf="http://www.w3.org/1999/02/22-rdf-syntax-ns#"
   xmlns:svg="http://www.w3.org/2000/svg"
   xmlns="http://www.w3.org/2000/svg"
   xmlns:sodipodi="http://sodipodi.sourceforge.net/DTD/sodipodi-0.dtd"
   xmlns:inkscape="http://www.inkscape.org/namespaces/inkscape"
   version="1.1"
   viewBox="0 0 80.744743 45.483298"
   id="svg865"
   sodipodi:docname="glsl.svg"
   style="transform: scale(0.6); margin-left: -0.3em; margin-right: -0.3em;"
   inkscape:version="0.92.4 (5da689c313, 2019-01-14)">
  <defs
     id="defs869" />
  <sodipodi:namedview
     pagecolor="#ffffff"
     bordercolor="#666666"
     borderopacity="1"
     objecttolerance="10"
     gridtolerance="10"
     guidetolerance="10"
     inkscape:pageopacity="0"
     inkscape:pageshadow="2"
     inkscape:window-width="1920"
     inkscape:window-height="1027"
     id="namedview867"
     showgrid="false"
     inkscape:zoom="4.4301777"
     inkscape:cx="43.704624"
     inkscape:cy="36.94043"
     inkscape:window-x="-8"
     inkscape:window-y="-8"
     inkscape:window-maximized="1"
     inkscape:current-layer="svg865" />
  <title
     id="title843">OpenGL logo</title>
  <desc
     id="desc845">A graphics open standard API from Khronos Group</desc>
  <metadata
     id="metadata847">
    <rdf:RDF>
      <cc:Work
         rdf:about="">
        <dc:format>image/svg+xml</dc:format>
        <dc:type
           rdf:resource="http://purl.org/dc/dcmitype/StillImage" />
        <dc:title />
      </cc:Work>
    </rdf:RDF>
  </metadata>
  <g
     transform="translate(-301.16518,-534.7352)"
     id="g863">
    <g
       transform="matrix(0.97,0,0,0.97,7.94,16.6)"
       id="g861"
       style="fill-rule:evenodd">
      <path
         style="fill:#b3b3b3;stroke-width:0.99699998"
         d="m 356,572.35 h 20.6 v 7.55 h -29.3 v -41.7 h 8.66 v 34.1 z"
         id="path4607"
         inkscape:connector-curvature="0"
         sodipodi:nodetypes="cccccccc" />
      <path
         style="fill:#b3b3b3;stroke-width:0.99699998"
         d="m 324.2,557.45 h 17.3 v 22.5 h -5.77 l -0.866,-5.23 c -2.19,2.56 -5.37,6.33 -12.9,6.33 -9.98,0 -19,-7.2 -19,-21.8 0,-11.4 6.29,-22.1 20.3,-22.1 12.7,0 17.7,8.3 18.2,14 h -8.66 c 0,-1.62 -2.94,-6.85 -9.06,-6.85 -6.17,0 -11.9,4.3 -11.9,15 0,11.4 6.17,14.3 12.1,14.3 1.9,0 8.25,-0.755 10,-9.17 h -9.64 v -7.02 z"
         id="path4605"
         inkscape:connector-curvature="0"
         sodipodi:nodetypes="cccccsssccssscccc" />
      <path
         style="fill:#ffffff"
         d="m 356,569.35 h 20.8 v 7.55 h -29.6 v -41.7 h 8.75 v 34.1 z"
         id="path4589"
         inkscape:connector-curvature="0" />
      <path
         style="fill:#ffffff"
         d="m 323.9,554.45 h 17.5 v 22.5 h -5.83 l -0.876,-5.22 c -2.22,2.55 -5.43,6.33 -13.1,6.33 -10.1,0 -19.3,-7.2 -19.3,-21.8 0,-11.4 6.36,-22.1 20.5,-22.1 12.8,0 17.9,8.3 18.4,14 h -8.75 c 0,-1.62 -2.98,-6.85 -9.16,-6.85 -6.24,0 -12,4.3 -12,15 0,11.4 6.24,14.3 12.2,14.3 1.92,0 8.34,-0.755 10.1,-9.17 h -9.74 v -7.02 z"
         id="path4587"
         inkscape:connector-curvature="0" />
      <g
         transform="matrix(0.219,0,0,0.22,135,505)"
         style="fill:#999999"
         id="g855">
        <path
           d="m 1144,325 c 0,3.14 -0.786,6.07 -2.36,8.78 -1.574,2.71 -3.71,4.85 -6.42,6.41 -2.71,1.56 -5.64,2.34 -8.78,2.34 -3.13,0 -6.04,-0.781 -8.76,-2.34 -2.71,-1.56 -4.85,-3.7 -6.42,-6.41 -1.57,-2.71 -2.36,-5.64 -2.36,-8.78 0,-3.13 0.784,-6.05 2.36,-8.77 1.57,-2.72 3.71,-4.86 6.42,-6.42 2.71,-1.56 5.63,-2.34 8.76,-2.34 3.14,0 6.07,0.781 8.78,2.34 2.71,1.56 4.85,3.7 6.42,6.42 1.57,2.72 2.36,5.64 2.36,8.77 z m -3.4,0 c 0,-3.91 -1.38,-7.24 -4.15,-10 -2.77,-2.77 -6.1,-4.15 -10,-4.15 -3.91,0 -7.24,1.38 -10,4.15 -2.77,2.77 -4.15,6.1 -4.15,10 0,3.9 1.38,7.24 4.15,10 2.77,2.77 6.1,4.15 10,4.15 3.91,0 7.24,-1.38 10,-4.15 2.76,-2.77 4.15,-6.1 4.15,-10 z m -22.1,-9.38 h 8.39 c 2.37,0 4.1,0.478 5.16,1.44 1.06,0.957 1.6,2.24 1.6,3.85 0,1.26 -0.406,2.34 -1.22,3.26 -0.812,0.919 -2.09,1.59 -3.84,2 0.72,0.276 1.25,0.567 1.59,0.873 0.475,0.43 0.973,1.06 1.49,1.91 0.03,0.061 1.04,1.87 3.03,5.42 h -5.52 c -1.79,-3.57 -3,-5.7 -3.61,-6.4 -0.614,-0.696 -1.23,-1.05 -1.84,-1.05 -0.138,0 -0.33,0.023 -0.574,0.069 v 7.38 h -4.67 z m 4.67,7.95 h 2.02 c 1.35,0 2.3,-0.218 2.85,-0.654 0.551,-0.438 0.827,-1 0.827,-1.69 0,-0.689 -0.265,-1.25 -0.793,-1.69 -0.529,-0.437 -1.43,-0.654 -2.7,-0.654 h -2.21 z"
           style="fill:#999999"
           id="path853"
           inkscape:connector-curvature="0" />
      </g>
      <g
         transform="matrix(0.219,0,0,0.22,135,504)"
         id="g859">
        <path
           d="m 1144,325 c 0,3.14 -0.786,6.07 -2.36,8.78 -1.574,2.71 -3.71,4.85 -6.42,6.41 -2.71,1.56 -5.64,2.34 -8.78,2.34 -3.13,0 -6.04,-0.781 -8.76,-2.34 -2.71,-1.56 -4.85,-3.7 -6.42,-6.41 -1.57,-2.71 -2.36,-5.64 -2.36,-8.78 0,-3.13 0.784,-6.05 2.36,-8.77 1.57,-2.72 3.71,-4.86 6.42,-6.42 2.71,-1.56 5.63,-2.34 8.76,-2.34 3.14,0 6.07,0.781 8.78,2.34 2.71,1.56 4.85,3.7 6.42,6.42 1.57,2.72 2.36,5.64 2.36,8.77 z m -3.4,0 c 0,-3.91 -1.38,-7.24 -4.15,-10 -2.77,-2.77 -6.1,-4.15 -10,-4.15 -3.91,0 -7.24,1.38 -10,4.15 -2.77,2.77 -4.15,6.1 -4.15,10 0,3.9 1.38,7.24 4.15,10 2.77,2.77 6.1,4.15 10,4.15 3.91,0 7.24,-1.38 10,-4.15 2.76,-2.77 4.15,-6.1 4.15,-10 z m -22.1,-9.38 h 8.39 c 2.37,0 4.1,0.478 5.16,1.44 1.06,0.957 1.6,2.24 1.6,3.85 0,1.26 -0.406,2.34 -1.22,3.26 -0.812,0.919 -2.09,1.59 -3.84,2 0.72,0.276 1.25,0.567 1.59,0.873 0.475,0.43 0.973,1.06 1.49,1.91 0.03,0.061 1.04,1.87 3.03,5.42 h -5.52 c -1.79,-3.57 -3,-5.7 -3.61,-6.4 -0.614,-0.696 -1.23,-1.05 -1.84,-1.05 -0.138,0 -0.33,0.023 -0.574,0.069 v 7.38 h -4.67 z m 4.67,7.95 h 2.02 c 1.35,0 2.3,-0.218 2.85,-0.654 0.551,-0.438 0.827,-1 0.827,-1.69 0,-0.689 -0.265,-1.25 -0.793,-1.69 -0.529,-0.437 -1.43,-0.654 -2.7,-0.654 h -2.21 z"
           id="path857"
           inkscape:connector-curvature="0"
           style="fill:#ffffff" />
      </g>
    </g>
  </g>
</svg>
