<svg viewBox="0 0 84 64" fill="none" xmlns="http://www.w3.org/2000/svg">
<path fill-rule="evenodd" clip-rule="evenodd" d="M83.4563 48.741C83.4563 49.411 83.2893 50.0363 82.955 50.6146C82.6206 51.1929 82.1668 51.6496 81.5911 51.9825C81.0155 52.3154 80.393 52.4819 79.726 52.4819C79.0611 52.4819 78.443 52.3152 77.8651 51.9825C77.2895 51.6496 76.8348 51.1929 76.5013 50.6146C76.1678 50.0363 76 49.411 76 48.741C76 48.073 76.1665 47.4499 76.5013 46.8694C76.8348 46.289 77.2895 45.8323 77.8651 45.4994C78.4408 45.1665 79.0611 45.0001 79.726 45.0001C80.393 45.0001 81.0155 45.1667 81.5911 45.4994C82.1668 45.8323 82.6214 46.289 82.955 46.8694C83.2885 47.4499 83.4563 48.073 83.4563 48.741ZM82.734 48.741C82.734 47.9066 82.4409 47.1959 81.8524 46.607C81.264 46.0158 80.5566 45.7214 79.7281 45.7214C78.8975 45.7214 78.1901 46.0158 77.6038 46.607C77.0154 47.1981 76.7223 47.9087 76.7223 48.741C76.7223 49.5732 77.0154 50.286 77.6038 50.875C78.1923 51.4661 78.8997 51.7606 79.7281 51.7606C80.5587 51.7606 81.2661 51.4661 81.8524 50.875C82.4387 50.2838 82.734 49.5732 82.734 48.741ZM78.0393 46.7393H79.8216C80.3251 46.7393 80.6926 46.8413 80.9178 47.0466C81.1429 47.2508 81.2576 47.5246 81.2576 47.8682C81.2576 48.137 81.1714 48.3675 80.9985 48.5638C80.826 48.76 80.5545 48.9031 80.1827 48.9906C80.3357 49.0495 80.4483 49.1116 80.5205 49.1769C80.6214 49.2687 80.7272 49.4031 80.837 49.5845C80.8434 49.5976 81.0579 49.9836 81.4807 50.7412H80.3081C79.9278 49.9793 79.6708 49.5248 79.5412 49.3754C79.4108 49.2269 79.2799 49.1513 79.1503 49.1513C79.121 49.1513 79.0802 49.1562 79.0284 49.1661V50.7409H78.0363L78.0393 46.7393ZM79.0314 48.4358H79.4605C79.7472 48.4358 79.9491 48.3893 80.0659 48.2962C80.183 48.2028 80.2416 48.0828 80.2416 47.9356C80.2416 47.7886 80.1853 47.6688 80.0731 47.5749C79.9607 47.4817 79.7694 47.4354 79.4996 47.4354H79.0301L79.0314 48.4358Z" fill="white"/>
<path fill-rule="evenodd" clip-rule="evenodd" d="M52.0948 45.1343H72.2708V52.4578H43.5588V12.0088H52.0463V45.0858L52.0948 45.1343Z" fill="white"/>
<path fill-rule="evenodd" clip-rule="evenodd" d="M20.9578 30.6813H37.9328V52.5063H32.2777L31.428 47.4429C29.2746 49.9164 26.1609 53.583 18.721 53.583C8.92399 53.583 0 46.599 0 32.437C0 21.379 6.1692 11 19.885 11C32.301 11 37.248 19.051 37.733 24.58H29.2455C29.2455 23.0086 26.3549 17.9355 20.3603 17.9355C14.3075 17.9355 8.72029 22.1065 8.72029 32.4855C8.72029 43.5435 14.7731 46.3565 20.5543 46.3565C22.4167 46.3565 28.6441 45.6242 30.3513 37.4616H20.9035V30.6522L20.9578 30.6813Z" fill="white"/>
</svg>
