<?xml version="1.0" encoding="UTF-8" standalone="no"?>
<!-- Created with Inkscape (http://www.inkscape.org/) -->

<svg
   xmlns:dc="http://purl.org/dc/elements/1.1/"
   xmlns:cc="http://creativecommons.org/ns#"
   xmlns:rdf="http://www.w3.org/1999/02/22-rdf-syntax-ns#"
   xmlns:svg="http://www.w3.org/2000/svg"
   xmlns="http://www.w3.org/2000/svg"
   xmlns:sodipodi="http://sodipodi.sourceforge.net/DTD/sodipodi-0.dtd"
   xmlns:inkscape="http://www.inkscape.org/namespaces/inkscape"
  
  
   viewBox="0 0 264.46744 254.38025"
   version="1.1"
   id="svg8"
   inkscape:version="0.92.4 (5da689c313, 2019-01-14)"
   sodipodi:docname="jquery.svg">
  <defs
     id="defs2" />
  <sodipodi:namedview
     id="base"
     pagecolor="#ffffff"
     bordercolor="#666666"
     borderopacity="1.0"
     inkscape:pageopacity="0.0"
     inkscape:pageshadow="2"
     inkscape:zoom="0.35"
     inkscape:cx="735.47064"
     inkscape:cy="99.195511"
     inkscape:document-units="mm"
     inkscape:current-layer="layer1"
     showgrid="false"
     inkscape:window-width="1920"
     inkscape:window-height="1027"
     inkscape:window-x="-8"
     inkscape:window-y="-8"
     inkscape:window-maximized="1" />
  <metadata
     id="metadata5">
    <rdf:RDF>
      <cc:Work
         rdf:about="">
        <dc:format>image/svg+xml</dc:format>
        <dc:type
           rdf:resource="http://purl.org/dc/dcmitype/StillImage" />
        <dc:title></dc:title>
      </cc:Work>
    </rdf:RDF>
  </metadata>
  <g
     inkscape:label="Layer 1"
     inkscape:groupmode="layer"
     id="layer1"
     transform="translate(-64.718236,-87.170868)">
    <path
       style="fill:#1068ad;stroke-width:1"
       d="m 200.26812,341.42531 c -0.58209,-0.0458 -2.72521,-0.21151 -4.7625,-0.36831 -10.08684,-0.77636 -18.52208,-2.20268 -24.94872,-4.2186 -14.85048,-4.65832 -27.02638,-10.41264 -39.47733,-18.65697 -14.54966,-9.63397 -26.82728,-20.99928 -37.442219,-34.66 -18.955675,-24.3947 -29.644226,-55.43536 -28.88083,-83.87292 0.408963,-15.23445 3.390057,-27.9716 9.535146,-40.74029 1.938259,-4.02745 5.163404,-9.4919 7.264634,-12.30867 1.74684,-2.3417 17.135381,-21.91205 17.683984,-22.48958 0.207348,-0.21828 -0.266941,0.97234 -1.053979,2.64583 -12.766925,27.14651 -12.918044,59.0781 -0.428868,90.61979 2.162185,5.46065 7.118592,15.29612 10.302862,20.44493 13.1324,21.23446 32.20871,39.62421 54.12659,52.17854 13.31848,7.62869 28.86908,13.68805 41.78539,16.28187 16.33844,3.28104 33.31758,4.01229 48.55105,2.09099 21.6686,-2.73293 41.28497,-10.82523 56.09166,-23.13939 3.10247,-2.58021 8.33392,-7.77517 11.1818,-11.10381 3.23686,-3.7833 3.21706,-3.76668 2.47116,-2.07504 -8.78902,19.9326 -25.65505,39.2475 -44.66474,51.14984 -4.25431,2.6637 -11.71829,6.56364 -16.48093,8.61129 -4.22917,1.8183 -13.10875,4.76126 -17.85937,5.91914 -7.26188,1.76996 -15.35438,3.02561 -23.15104,3.59219 -3.31857,0.24115 -17.15809,0.31032 -19.84375,0.0992 z m 37.83541,-82.39546 c -4.46799,-0.24479 -10.50003,-0.88556 -14.828,-1.57517 -3.59682,-0.5731 -11.89544,-3.25991 -17.2261,-5.57722 -10.74596,-4.67141 -20.05675,-10.50168 -29.06465,-18.1998 -3.83218,-3.27498 -12.04188,-11.66947 -14.18587,-14.50519 -11.95168,-15.80776 -18.78501,-31.82982 -20.7267,-48.59774 -2.07989,-17.96132 1.53837,-35.54589 10.12519,-49.20802 1.47277,-2.34327 14.58591,-21.10382 15.18919,-21.730698 0.14005,-0.145521 -0.34611,0.866508 -1.08034,2.248958 -3.43575,6.46897 -6.1173,14.78852 -7.46203,23.15104 -0.71314,4.43484 -0.98526,14.23489 -0.53031,19.09836 1.98443,21.21377 11.78049,41.76152 27.8668,58.45212 18.88919,19.59875 43.74683,31.54717 70.17907,33.73324 4.55323,0.37657 14.15764,0.15994 18.38855,-0.41478 15.03515,-2.04232 27.60679,-7.02352 38.84516,-15.39145 3.76365,-2.80235 11.09563,-10.05737 13.66627,-13.5228 0.9985,-1.34607 1.85367,-2.4474 1.90038,-2.4474 0.2397,0 -1.24156,3.52195 -3.0654,7.28857 -7.46388,15.41447 -19.27596,27.96895 -34.05493,36.19531 -15.03968,8.37148 -33.44213,12.12547 -53.93628,11.00267 z m 30.95625,-72.10491 c -9.11653,-0.68343 -13.67441,-1.67825 -20.55219,-4.4858 -16.21177,-6.61774 -30.00519,-19.81583 -36.85447,-35.26384 -7.01191,-15.81482 -6.30944,-33.23298 1.90703,-47.286111 0.93989,-1.607548 9.31818,-13.385672 9.02595,-12.688594 -0.061,0.145521 -0.56034,1.217083 -1.10963,2.38125 -3.31223,7.019894 -4.8256,15.400305 -4.16823,23.081885 1.2011,14.03536 7.59907,27.68207 18.09858,38.60378 3.76579,3.91722 7.07346,6.6872 11.49868,9.62948 9.14852,6.08276 18.35436,9.47423 30.62095,11.28091 4.81653,0.70939 14.26201,0.63951 18.5025,-0.1369 10.09507,-1.84836 17.87334,-6.38124 24.588,-14.32895 l 1.00591,-1.19062 -0.73292,1.32291 c -0.40311,0.72761 -1.37902,2.39448 -2.16868,3.70417 -8.63284,14.31786 -20.91918,22.60296 -36.88115,24.87021 -2.74579,0.39001 -10.32557,0.69024 -12.78033,0.50622 z"
       id="path1026"
       inkscape:connector-curvature="0" />
  </g>
</svg>
