<?xml version="1.0" encoding="UTF-8" standalone="no"?>
<!-- Created with Inkscape (http://www.inkscape.org/) -->

<svg
   xmlns:dc="http://purl.org/dc/elements/1.1/"
   xmlns:cc="http://creativecommons.org/ns#"
   xmlns:rdf="http://www.w3.org/1999/02/22-rdf-syntax-ns#"
   xmlns:svg="http://www.w3.org/2000/svg"
   xmlns="http://www.w3.org/2000/svg"
   xmlns:sodipodi="http://sodipodi.sourceforge.net/DTD/sodipodi-0.dtd"
   xmlns:inkscape="http://www.inkscape.org/namespaces/inkscape"
   width="113.77159mm"
   height="59.764885mm"
   viewBox="0 0 113.77159 59.76488"
   version="1.1"
   id="svg8"
   inkscape:version="0.92.4 (5da689c313, 2019-01-14)"
   sodipodi:docname="koa.svg">
  <defs
     id="defs2" />
  <sodipodi:namedview
     id="base"
     pagecolor="#ffffff"
     bordercolor="#666666"
     borderopacity="1.0"
     inkscape:pageopacity="0.0"
     inkscape:pageshadow="2"
     inkscape:zoom="1.979899"
     inkscape:cx="227.18093"
     inkscape:cy="86.563717"
     inkscape:document-units="mm"
     inkscape:current-layer="layer1"
     showgrid="false"
     inkscape:window-width="1920"
     inkscape:window-height="1027"
     inkscape:window-x="-8"
     inkscape:window-y="-8"
     inkscape:window-maximized="1" />
  <metadata
     id="metadata5">
    <rdf:RDF>
      <cc:Work
         rdf:about="">
        <dc:format>image/svg+xml</dc:format>
        <dc:type
           rdf:resource="http://purl.org/dc/dcmitype/StillImage" />
        <dc:title></dc:title>
      </cc:Work>
    </rdf:RDF>
  </metadata>
  <g
     inkscape:label="Layer 1"
     inkscape:groupmode="layer"
     id="layer1"
     transform="translate(-202.44745,-199.12596)">
    <path
       style="fill:#33333d;stroke-width:1"
       d="m 250.60171,258.52682 c -7.08485,-1.58738 -11.48448,-5.64984 -13.28739,-12.26913 -0.82651,-3.03448 -0.83042,-10.08322 -0.007,-13.33559 0.97093,-3.83687 2.21667,-6.04769 4.96042,-8.80331 2.59508,-2.60631 4.76857,-3.90055 8.06979,-4.80531 2.42084,-0.66347 8.94784,-0.6586 11.37708,0.008 4.80654,1.31992 8.8331,4.35987 10.70038,8.07852 1.67287,3.33147 2.07516,5.33565 2.10501,10.48693 0.0228,3.9317 -0.0526,4.79768 -0.59873,6.87917 -1.08162,4.12235 -2.60402,6.70392 -5.57618,9.45569 -2.00621,1.85744 -4.6522,3.32823 -7.29193,4.05328 -2.22807,0.61198 -8.20025,0.75556 -10.45105,0.25126 z m 8.92784,-0.97739 c 4.07567,-1.51706 7.4348,-5.86403 8.8557,-11.45993 0.53717,-2.11554 0.60466,-3.01598 0.60482,-8.06979 1.5e-4,-4.66475 -0.0886,-6.04567 -0.49304,-7.67291 -1.35031,-5.43265 -4.31427,-9.02292 -8.6349,-10.45954 -2.11682,-0.70385 -5.9801,-0.64211 -8.0018,0.12787 -4.18358,1.59335 -7.45184,5.73961 -8.97808,11.39 -0.54836,2.03008 -0.60778,2.82834 -0.61055,8.20208 -0.003,6.65262 0.22582,8.07448 1.85708,11.5183 1.876,3.96049 5.38018,6.60846 9.38335,7.09063 1.62085,0.19523 4.5837,-0.13305 6.01742,-0.66671 z m 28.67716,0.95532 c -0.78157,-0.21023 -1.85313,-0.5859 -2.38125,-0.83484 -1.32656,-0.6253 -3.24862,-2.61178 -3.90877,-4.03978 -1.1773,-2.54664 -1.57272,-6.00319 -0.91433,-7.99248 0.45692,-1.38058 2.78037,-3.4281 4.69913,-4.14108 3.29525,-1.22445 8.91188,-1.97614 14.97258,-2.00383 l 3.90256,-0.0178 -0.003,-7.54062 -0.003,-7.54063 -0.8811,-1.5875 c -0.73117,-1.31739 -1.12455,-1.71259 -2.31195,-2.3227 -3.60998,-1.85489 -9.96223,-1.36427 -16.50556,1.27482 -0.86952,0.35071 -1.68062,0.53797 -1.80245,0.41614 -0.27264,-0.27264 3.21053,-1.68264 5.89695,-2.38711 3.50467,-0.91904 5.87751,-1.16298 9.85666,-1.0133 6.14876,0.2313 8.75676,1.39514 10.44822,4.6626 l 0.86179,1.66474 0.002,14.46282 c 10e-4,9.6823 0.0975,14.80854 0.29186,15.50874 0.15971,0.57526 0.68292,1.43846 1.16269,1.91823 0.82278,0.82289 0.97867,0.87232 2.75075,0.87232 1.49343,0 1.87855,0.0814 1.87855,0.39688 0,0.32283 -0.43189,0.39614 -2.31511,0.39296 -2.78652,-0.005 -5.39436,-0.57371 -6.76102,-1.47519 -1.30452,-0.86049 -2.56138,-2.84014 -2.57942,-4.0628 l -0.0139,-0.94039 -0.4455,0.66146 c -1.03095,1.5307 -3.35568,3.69622 -4.76267,4.4365 -0.83103,0.43723 -2.29247,0.98711 -3.24765,1.22194 -2.1309,0.52389 -5.95769,0.52871 -7.88643,0.01 z m 8.74652,-0.80987 c 2.5039,-0.79154 5.15502,-2.91316 6.73228,-5.38767 l 0.75891,-1.19062 0.0857,-5.52816 0.0857,-5.52816 -4.84822,0.15581 c -8.81554,0.2833 -11.78192,1.52199 -13.06911,5.45737 -0.53605,1.63886 -0.39918,5.33922 0.28164,7.61427 0.74978,2.50552 2.66841,4.42098 4.87143,4.86339 1.2285,0.24672 3.52869,0.041 5.10163,-0.45623 z m -94.50569,-28.80329 v -29.76563 h 2.77644 2.77645 l 0.0678,19.6903 0.0678,19.69029 8.66447,-9.76842 c 4.76546,-5.37263 8.84828,-9.76842 9.07295,-9.76842 0.22774,0 -1.33439,1.96096 -3.53043,4.43177 -2.1664,2.43748 -5.08223,5.72883 -6.47962,7.31412 l -2.54071,2.88235 2.19734,3.20307 c 5.85804,8.5393 14.70871,21.61357 14.70871,21.72781 0,0.0706 -1.22044,0.12838 -2.7121,0.12838 h -2.71211 l -7.14362,-10.50096 c -3.92899,-5.77553 -7.23089,-10.62733 -7.33755,-10.78177 -0.11845,-0.17152 -0.60317,0.18256 -1.24549,0.90981 l -1.05157,1.19063 -0.0113,9.59115 -0.0113,9.59114 h -2.77812 -2.77813 z"
       id="path1090"
       inkscape:connector-curvature="0" />
  </g>
</svg>
