<?xml version="1.0" encoding="UTF-8" standalone="no"?>
<!-- Created with Inkscape (http://www.inkscape.org/) -->

<svg
   xmlns:dc="http://purl.org/dc/elements/1.1/"
   xmlns:cc="http://creativecommons.org/ns#"
   xmlns:rdf="http://www.w3.org/1999/02/22-rdf-syntax-ns#"
   xmlns:svg="http://www.w3.org/2000/svg"
   xmlns="http://www.w3.org/2000/svg"
   xmlns:sodipodi="http://sodipodi.sourceforge.net/DTD/sodipodi-0.dtd"
   xmlns:inkscape="http://www.inkscape.org/namespaces/inkscape"
   width="339.46127mm"
   height="389.13092mm"
   viewBox="0 0 339.46127 389.13089"
   version="1.1"
   id="svg8"
   inkscape:version="0.92.4 (5da689c313, 2019-01-14)"
   sodipodi:docname="nginx.svg">
  <defs
     id="defs2" />
  <sodipodi:namedview
     id="base"
     pagecolor="#ffffff"
     bordercolor="#666666"
     borderopacity="1.0"
     inkscape:pageopacity="0.0"
     inkscape:pageshadow="2"
     inkscape:zoom="0.175"
     inkscape:cx="735.76051"
     inkscape:cy="891.48442"
     inkscape:document-units="mm"
     inkscape:current-layer="layer1"
     showgrid="false"
     inkscape:window-width="1920"
     inkscape:window-height="1027"
     inkscape:window-x="-8"
     inkscape:window-y="-8"
     inkscape:window-maximized="1" />
  <metadata
     id="metadata5">
    <rdf:RDF>
      <cc:Work
         rdf:about="">
        <dc:format>image/svg+xml</dc:format>
        <dc:type
           rdf:resource="http://purl.org/dc/dcmitype/StillImage" />
        <dc:title></dc:title>
      </cc:Work>
    </rdf:RDF>
  </metadata>
  <g
     inkscape:label="Layer 1"
     inkscape:groupmode="layer"
     id="layer1"
     transform="translate(-288.83832,-149.84666)">
    <path
       style="fill:#009538;stroke-width:1"
       d="m 455.98921,538.74457 c -1.0079,-0.30332 4.29488,2.74169 -84.10289,-48.29461 -44.00291,-25.405 -80.33623,-46.50772 -80.74073,-46.89488 -0.40449,-0.38717 -1.0891,-1.41169 -1.52135,-2.27669 l -0.78592,-1.57274 0.003,-95.27389 0.003,-95.2739 0.63619,-1.36638 c 0.34991,-0.75151 1.09289,-1.80975 1.65108,-2.35164 0.63558,-0.61703 31.50891,-18.58398 82.60808,-48.07435 74.24452,-42.84801 81.74122,-47.11446 83.23644,-47.37058 1.29767,-0.22228 1.97175,-0.20029 3.20574,0.10456 1.22814,0.30342 18.85953,10.37252 82.39273,47.05368 44.45662,25.66721 81.27656,46.94716 81.82211,47.28879 1.23266,0.77193 2.71145,2.7657 3.15436,4.2529 0.1842,0.61847 0.42796,1.12448 0.54171,1.12448 0.11374,0 0.20682,42.56485 0.20682,94.58855 0,62.88265 -0.0887,94.58854 -0.26458,94.58854 -0.14552,0 -0.26458,0.21474 -0.26458,0.47723 0,0.83169 -1.27374,3.07229 -2.30908,4.06183 -1.03309,0.98735 -162.96362,94.60048 -164.61634,95.16581 -1.01766,0.34809 -3.76086,0.37256 -4.85494,0.0433 z m -69.93128,-98.43344 c 6.02528,-1.59145 11.0013,-5.65529 13.75881,-11.23659 2.3326,-4.72123 2.10222,1.64271 2.25761,-62.3668 l 0.13793,-56.81051 49.19414,58.92718 c 27.26068,32.65422 50.32354,60.04788 51.72723,61.44075 6.13415,6.08674 14.43353,9.70838 24.28941,10.59932 9.00745,0.81425 17.27063,-1.98165 22.62185,-7.65419 2.62364,-2.78119 4.2287,-5.80938 5.09492,-9.61213 0.35783,-1.57091 0.39587,-10.73642 0.33494,-80.69792 l -0.0687,-78.92571 -0.87341,-2.51354 c -1.14126,-3.28435 -2.59379,-5.6951 -4.88432,-8.10641 -4.29461,-4.52111 -9.53738,-6.71026 -16.07039,-6.71026 -6.19398,0 -11.01323,1.86535 -15.27281,5.91153 -3.2239,3.06239 -5.28156,6.66411 -6.25679,10.9519 -0.39074,1.71792 -0.43082,7.12 -0.43082,58.05988 v 56.1657 l -0.63952,-0.65543 c -0.35174,-0.36049 -22.56502,-26.90873 -49.36287,-58.99608 -26.79782,-32.08734 -49.57839,-59.21635 -50.62349,-60.28669 -6.61805,-6.77794 -15.83735,-10.64221 -26.37412,-11.05471 -4.62452,-0.18104 -7.72679,0.25179 -11.51887,1.60714 -7.48173,2.67407 -12.64804,8.07775 -14.41183,15.07398 -0.52123,2.06744 -0.52763,3.04558 -0.52763,80.58945 0,77.489 0.007,78.52347 0.52654,80.58944 2.13016,8.46662 9.17152,14.90533 17.7401,16.22176 2.51976,0.38714 7.1646,0.14068 9.63213,-0.51106 z"
       id="path1103"
       inkscape:connector-curvature="0" />
  </g>
</svg>
