<svg viewBox="0 0 491 491" fill="none" xmlns="http://www.w3.org/2000/svg">
<path d="M490.6 245.5C490.6 213 449.9 182.2 387.5 163.1C401.9 99.5 395.5 48.9 367.3 32.7C360.8 28.9 353.2 27.1 344.9 27.1V49.4C349.5 49.4 353.2 50.3 356.3 52C369.9 59.8 375.8 89.5 371.2 127.7C370.1 137.1 368.3 147 366.1 157.1C346.5 152.3 325.1 148.6 302.6 146.2C289.1 127.7 275.1 110.9 261 96.2C293.6 65.9 324.2 49.3 345 49.3V27C317.5 27 281.5 46.6 245.1 80.6C208.7 46.8 172.7 27.4 145.2 27.4V49.7C165.9 49.7 196.6 66.2 229.2 96.3C215.2 111 201.2 127.7 187.9 146.2C165.3 148.6 143.9 152.3 124.3 157.2C122 147.2 120.3 137.5 119.1 128.2C114.4 90 120.2 60.3 133.7 52.4C136.7 50.6 140.6 49.8 145.2 49.8V27.5C136.8 27.5 129.2 29.3 122.6 33.1C94.5 49.3 88.2 99.8 102.7 163.2C40.5 182.4 0 213.1 0 245.5C0 278 40.7 308.8 103.1 327.9C88.7 391.5 95.1 442.1 123.3 458.3C129.8 462.1 137.4 463.9 145.8 463.9C173.3 463.9 209.3 444.3 245.7 410.3C282.1 444.1 318.1 463.5 345.6 463.5C354 463.5 361.6 461.7 368.2 457.9C396.3 441.7 402.6 391.2 388.1 327.8C450.1 308.7 490.6 277.9 490.6 245.5ZM360.4 178.8C356.7 191.7 352.1 205 346.9 218.3C342.8 210.3 338.5 202.3 333.8 194.3C329.2 186.3 324.3 178.5 319.4 170.9C333.6 173 347.3 175.6 360.4 178.8ZM314.6 285.3C306.8 298.8 298.8 311.6 290.5 323.5C275.6 324.8 260.5 325.5 245.3 325.5C230.2 325.5 215.1 324.8 200.3 323.6C192 311.7 183.9 299 176.1 285.6C168.5 272.5 161.6 259.2 155.3 245.8C161.5 232.4 168.5 219 176 205.9C183.8 192.4 191.8 179.6 200.1 167.7C215 166.4 230.1 165.7 245.3 165.7C260.4 165.7 275.5 166.4 290.3 167.6C298.6 179.5 306.7 192.2 314.5 205.6C322.1 218.7 329 232 335.3 245.4C329 258.8 322.1 272.2 314.6 285.3ZM346.9 272.3C352.3 285.7 356.9 299.1 360.7 312.1C347.6 315.3 333.8 318 319.5 320.1C324.4 312.4 329.3 304.5 333.9 296.4C338.5 288.4 342.8 280.3 346.9 272.3ZM245.5 379C236.2 369.4 226.9 358.7 217.7 347C226.7 347.4 235.9 347.7 245.2 347.7C254.6 347.7 263.9 347.5 273 347C264 358.7 254.7 369.4 245.5 379ZM171.1 320.1C156.9 318 143.2 315.4 130.1 312.2C133.8 299.3 138.4 286 143.6 272.7C147.7 280.7 152 288.7 156.7 296.7C161.4 304.7 166.2 312.5 171.1 320.1ZM245 112C254.3 121.6 263.6 132.3 272.8 144C263.8 143.6 254.6 143.3 245.3 143.3C235.9 143.3 226.6 143.5 217.5 144C226.5 132.3 235.8 121.6 245 112ZM171 170.9C166.1 178.6 161.2 186.5 156.6 194.6C152 202.6 147.7 210.6 143.6 218.6C138.2 205.2 133.6 191.8 129.8 178.8C142.9 175.7 156.7 173 171 170.9ZM80.5 296.1C45.1 281 22.2 261.2 22.2 245.5C22.2 229.8 45.1 209.9 80.5 194.9C89.1 191.2 98.5 187.9 108.2 184.8C113.9 204.4 121.4 224.8 130.7 245.7C121.5 266.5 114.1 286.8 108.5 306.3C98.6 303.2 89.2 299.8 80.5 296.1ZM134.3 439C120.7 431.2 114.8 401.5 119.4 363.3C120.5 353.9 122.3 344 124.5 333.9C144.1 338.7 165.5 342.4 188 344.8C201.5 363.3 215.5 380.1 229.6 394.8C197 425.1 166.4 441.7 145.6 441.7C141.1 441.6 137.3 440.7 134.3 439ZM371.5 362.8C376.2 401 370.4 430.7 356.9 438.6C353.9 440.4 350 441.2 345.4 441.2C324.7 441.2 294 424.7 261.4 394.6C275.4 379.9 289.4 363.2 302.7 344.7C325.3 342.3 346.7 338.6 366.3 333.7C368.6 343.8 370.4 353.5 371.5 362.8ZM410 296.1C401.4 299.8 392 303.1 382.3 306.2C376.6 286.6 369.1 266.2 359.8 245.3C369 224.5 376.4 204.2 382 184.7C391.9 187.8 401.3 191.2 410.1 194.9C445.5 210 468.4 229.8 468.4 245.5C468.3 261.2 445.4 281.1 410 296.1Z" fill="#61DAFB"/>
<path d="M245.2 291.4C270.439 291.4 290.9 270.939 290.9 245.7C290.9 220.461 270.439 200 245.2 200C219.961 200 199.5 220.461 199.5 245.7C199.5 270.939 219.961 291.4 245.2 291.4Z" fill="#61DAFB"/>
</svg>
