<svg viewBox="0 0 54 48" fill="none" xmlns="http://www.w3.org/2000/svg">
<path fill-rule="evenodd" clip-rule="evenodd" d="M27 8C19.8 8 15.3 11.6 13.5 18.8C16.2 15.2 19.35 13.85 22.95 14.75C25.004 15.263 26.472 16.754 28.097 18.403C30.744 21.09 33.808 24.2 40.5 24.2C47.7 24.2 52.2 20.6 54 13.4C51.3 17 48.15 18.35 44.55 17.45C42.496 16.937 41.028 15.446 39.403 13.797C36.756 11.11 33.692 8 27 8ZM13.5 24.2C6.3 24.2 1.8 27.8 0 35C2.7 31.4 5.85 30.05 9.45 30.95C11.504 31.464 12.972 32.954 14.597 34.603C17.244 37.29 20.308 40.4 27 40.4C34.2 40.4 38.7 36.8 40.5 29.6C37.8 33.2 34.65 34.55 31.05 33.65C28.996 33.137 27.528 31.646 25.903 29.997C23.256 27.31 20.192 24.2 13.5 24.2Z" fill="#38BDF8"/>
</svg>
