<?xml version="1.0" encoding="UTF-8" standalone="no"?>
<!-- Created with Inkscape (http://www.inkscape.org/) -->

<svg
   xmlns:dc="http://purl.org/dc/elements/1.1/"
   xmlns:cc="http://creativecommons.org/ns#"
   xmlns:rdf="http://www.w3.org/1999/02/22-rdf-syntax-ns#"
   xmlns:svg="http://www.w3.org/2000/svg"
   xmlns="http://www.w3.org/2000/svg"
   xmlns:sodipodi="http://sodipodi.sourceforge.net/DTD/sodipodi-0.dtd"
   xmlns:inkscape="http://www.inkscape.org/namespaces/inkscape"
   width="65.494736mm"
   height="65.819382mm"
   viewBox="0 0 65.494736 65.819378"
   version="1.1"
   id="svg8"
   inkscape:version="0.92.4 (5da689c313, 2019-01-14)"
   sodipodi:docname="threejs.svg">
  <defs
     id="defs2" />
  <sodipodi:namedview
     id="base"
     pagecolor="#ffffff"
     bordercolor="#666666"
     borderopacity="1.0"
     inkscape:pageopacity="0.0"
     inkscape:pageshadow="2"
     inkscape:zoom="0.98994949"
     inkscape:cx="460.55724"
     inkscape:cy="70.339193"
     inkscape:document-units="mm"
     inkscape:current-layer="layer1"
     showgrid="false"
     inkscape:window-width="1920"
     inkscape:window-height="1027"
     inkscape:window-x="-8"
     inkscape:window-y="-8"
     inkscape:window-maximized="1" />
  <metadata
     id="metadata5">
    <rdf:RDF>
      <cc:Work
         rdf:about="">
        <dc:format>image/svg+xml</dc:format>
        <dc:type
           rdf:resource="http://purl.org/dc/dcmitype/StillImage" />
        <dc:title></dc:title>
      </cc:Work>
    </rdf:RDF>
  </metadata>
  <g
     inkscape:label="Layer 1"
     inkscape:groupmode="layer"
     id="layer1"
     transform="translate(-216.21963,-215.59575)">
    <path
       style="fill:#0d0f0c;stroke-width:1"
       d="m 232.2779,280.9521 c -0.13343,-0.25466 -0.32975,-0.87973 -0.43628,-1.38906 -0.10652,-0.50932 -1.89939,-7.83166 -3.98415,-16.27187 -2.08476,-8.44021 -5.40138,-21.89428 -7.37027,-29.89792 -1.96889,-8.00365 -3.75553,-15.20693 -3.97031,-16.0073 -0.70124,-2.61305 -1.5669,-2.73282 15.36857,2.12636 8.26991,2.37282 15.57198,4.4615 16.22682,4.64152 0.65485,0.18001 3.69094,1.05288 6.74688,1.93971 3.05594,0.88682 10.19969,2.94068 15.875,4.56412 5.67531,1.62345 10.46758,3.06649 10.64948,3.20678 0.1819,0.14028 0.33073,0.45751 0.33073,0.70494 0,0.24743 -4.01836,4.30465 -8.92969,9.01605 -7.88249,7.5616 -19.48191,18.72903 -34.55243,33.26563 -2.65715,2.56301 -4.94654,4.56407 -5.22173,4.56407 -0.26952,0 -0.5992,-0.20836 -0.73262,-0.46303 z m 6.71373,-6.87443 c 2.59621,-2.50764 4.66826,-4.61147 4.60455,-4.67518 -0.26206,-0.26206 -13.28023,-3.88131 -13.42828,-3.73326 -0.13038,0.13038 0.95279,4.84978 2.90189,12.64365 0.31579,1.26277 -0.0161,1.50013 5.92184,-4.23521 z m 4.86995,-6.75161 c -0.0563,-1.07192 -3.08289,-12.47665 -3.33319,-12.56008 -0.33042,-0.11014 -9.82997,9.04788 -9.61402,9.26838 0.2144,0.21892 11.71811,3.56024 12.36927,3.59273 0.32742,0.0163 0.58749,-0.11913 0.57794,-0.30103 z m 6.5288,-4.2247 c 4.30737,-4.13587 5.02597,-4.89745 4.81763,-5.10578 -0.17326,-0.17327 -12.06134,-3.56796 -12.49484,-3.56796 -0.23195,0 -0.42172,0.0476 -0.42172,0.10581 0,0.14777 2.51439,10.36129 2.88878,11.7343 0.16864,0.61846 0.40444,1.12448 0.52399,1.12448 0.11956,0 2.22833,-1.93089 4.68616,-4.29085 z M 234.5838,258.102 c 2.49296,-2.41749 4.53171,-4.50108 4.53055,-4.63021 -0.003,-0.28786 -12.66351,-3.92926 -12.88649,-3.70627 -0.0876,0.0876 0.4037,2.45236 1.09183,5.25498 1.85096,7.53866 1.96979,7.92244 2.37896,7.6831 0.19387,-0.1134 2.39219,-2.18412 4.88515,-4.6016 z m 19.73485,-8.53106 c -0.83388,-3.36794 -1.60843,-6.22612 -1.72123,-6.35152 -0.18929,-0.21044 -10.04139,8.96942 -10.04139,9.35623 0,0.0947 2.9468,1.01395 6.54844,2.04269 5.34939,1.52795 6.56509,1.79771 6.63938,1.47328 0.05,-0.21844 -0.59132,-3.15275 -1.4252,-6.52068 z m 8.34572,1.70615 c 2.69213,-2.59969 4.81448,-4.81065 4.71632,-4.91325 -0.25995,-0.27173 -12.96733,-3.88173 -13.12143,-3.72763 -0.0715,0.0715 0.55195,2.9027 1.38553,6.29147 1.87309,7.61468 1.72864,7.08854 1.94418,7.08178 0.0993,-0.003 2.38326,-2.13269 5.0754,-4.73237 z m -22.75586,0.17397 c -0.002,-0.46069 -3.09253,-12.90585 -3.24157,-13.0549 -0.18412,-0.18411 -10.02711,9.463 -9.84642,9.65048 0.20457,0.21224 12.01973,3.68843 12.62666,3.71493 0.25466,0.0111 0.46226,-0.12861 0.46133,-0.31051 z m 6.69484,-4.98337 c 2.57616,-2.48618 4.68393,-4.61514 4.68393,-4.73101 0,-0.11587 -1.27992,-0.56948 -2.84427,-1.00804 -1.56435,-0.43855 -4.29864,-1.22663 -6.0762,-1.75128 -3.28442,-0.9694 -4.04055,-1.11049 -4.04863,-0.75547 -0.0176,0.77265 3.10502,12.76271 3.32423,12.76423 0.15236,0.001 2.38478,-2.03224 4.96094,-4.51843 z m -15.80777,-4.67242 c 2.58935,-2.50941 4.65762,-4.61283 4.59616,-4.67427 -0.14527,-0.14521 -12.77997,-3.86004 -13.12861,-3.86004 -0.25288,0 0.0728,1.63063 1.3825,6.92281 1.74897,7.06698 1.61477,6.65379 2.07459,6.38715 0.20211,-0.1172 2.48602,-2.26624 5.07536,-4.77565 z m 36.90029,2.37975 c 0.002,-0.25466 -0.67144,-3.22649 -1.4975,-6.60406 -1.10506,-4.5183 -1.58865,-6.09138 -1.83008,-5.95312 -0.50915,0.29156 -9.64142,9.08088 -9.64142,9.27934 0,0.16891 11.9546,3.69418 12.63385,3.72558 0.1819,0.008 0.33272,-0.19308 0.33515,-0.44774 z m 6.9007,-4.33893 c 2.6051,-2.49555 4.73655,-4.68327 4.73655,-4.8616 0,-0.19242 -1.74806,-0.82189 -4.29948,-1.54824 -2.36471,-0.6732 -5.28336,-1.50759 -6.48588,-1.8542 -1.20252,-0.34661 -2.23,-0.55489 -2.2833,-0.46284 -0.17127,0.29584 3.11208,13.26425 3.35825,13.26425 0.13052,0 2.36875,-2.04182 4.97386,-4.53737 z m -24.25252,-6.34774 c -0.83618,-3.39929 -1.61088,-6.28364 -1.72155,-6.40967 -0.2194,-0.24985 -9.63834,8.67818 -9.63834,9.13599 0,0.35657 12.3587,3.92527 12.65782,3.65509 0.12232,-0.11049 -0.46175,-2.98213 -1.29793,-6.38141 z m 8.36117,1.38239 c 3.27778,-3.14994 4.68364,-4.66643 4.44319,-4.79281 -0.67983,-0.35733 -12.71877,-3.72045 -12.84962,-3.58959 -0.10739,0.10739 2.5627,11.56632 2.98581,12.81389 0.0658,0.194 0.23349,0.31306 0.37266,0.26458 0.13917,-0.0485 2.41075,-2.16171 5.04796,-4.69607 z m -22.76377,0.37195 c 0,-0.23108 -2.39913,-9.97592 -2.81661,-11.44059 -0.21777,-0.76398 -0.49747,-1.38906 -0.62157,-1.38906 -0.37061,0 -9.673,9.19101 -9.4917,9.37804 0.24006,0.24764 11.62316,3.53647 12.33457,3.56373 0.32742,0.0125 0.59531,-0.0379 0.59531,-0.11212 z m 8.58569,-6.7167 c 1.59343,-1.60622 2.84359,-2.96503 2.77813,-3.01959 -0.1414,-0.11784 -10.24792,-3.0446 -11.72947,-3.39675 -0.56491,-0.13427 -1.08749,-0.18375 -1.1613,-0.10994 -0.12464,0.12464 2.77654,12.46435 3.03851,12.92385 0.14792,0.25944 3.28078,-2.57381 7.07413,-6.39757 z m -17.70031,-2.8703 c 2.58935,-2.50941 4.65184,-4.61862 4.58333,-4.68714 -0.22391,-0.2239 -13.02214,-3.82221 -13.20113,-3.71159 -0.13944,0.0862 2.58708,11.73786 3.05188,13.04208 0.18821,0.5281 0.48663,0.27914 5.56592,-4.64335 z"
       id="path1064"
       inkscape:connector-curvature="0" />
  </g>
</svg>
