<?xml version="1.0" encoding="UTF-8" standalone="no"?>
<!-- Created with Inkscape (http://www.inkscape.org/) -->

<svg
   xmlns:dc="http://purl.org/dc/elements/1.1/"
   xmlns:cc="http://creativecommons.org/ns#"
   xmlns:rdf="http://www.w3.org/1999/02/22-rdf-syntax-ns#"
   xmlns:svg="http://www.w3.org/2000/svg"
   xmlns="http://www.w3.org/2000/svg"
   xmlns:sodipodi="http://sodipodi.sourceforge.net/DTD/sodipodi-0.dtd"
   xmlns:inkscape="http://www.inkscape.org/namespaces/inkscape"
   width="241.2912mm"
   height="226.02269mm"
   viewBox="0 0 241.2912 226.02268"
   version="1.1"
   id="svg8"
   inkscape:version="0.92.4 (5da689c313, 2019-01-14)"
   sodipodi:docname="web3.svg">
  <defs
     id="defs2" />
  <sodipodi:namedview
     id="base"
     pagecolor="#ffffff"
     bordercolor="#666666"
     borderopacity="1.0"
     inkscape:pageopacity="0.0"
     inkscape:pageshadow="2"
     inkscape:zoom="1.979899"
     inkscape:cx="202.64717"
     inkscape:cy="592.60165"
     inkscape:document-units="mm"
     inkscape:current-layer="layer1"
     showgrid="false"
     inkscape:window-width="1920"
     inkscape:window-height="1027"
     inkscape:window-x="-8"
     inkscape:window-y="-8"
     inkscape:window-maximized="1" />
  <metadata
     id="metadata5">
    <rdf:RDF>
      <cc:Work
         rdf:about="">
        <dc:format>image/svg+xml</dc:format>
        <dc:type
           rdf:resource="http://purl.org/dc/dcmitype/StillImage" />
        <dc:title></dc:title>
      </cc:Work>
    </rdf:RDF>
  </metadata>
  <g
     inkscape:label="Layer 1"
     inkscape:groupmode="layer"
     id="layer1"
     transform="translate(-438.34492,-244.18502)">
    <g
       id="g1203"
       transform="translate(50.246671,53.186636)">
      <path
         style="fill:#bbbcbe;stroke-width:1"
         d="m 612.28958,416.66184 c -2.52084,-0.45725 -5.03578,-1.28175 -7.62156,-2.49859 -1.69335,-0.7969 -20.04571,-11.29069 -35.11869,-20.08072 l -2.57494,-1.50161 -0.005,-10.3665 -0.005,-10.3665 6.54844,3.76726 c 11.52213,6.62859 19.12285,11.01888 24.01093,13.86909 6.29233,3.66901 7.25326,4.09118 9.39271,4.12655 1.38486,0.0229 1.8809,-0.0865 2.54707,-0.56167 1.49315,-1.06507 1.81927,-2.14875 1.813,-6.02448 -0.006,-3.87708 -0.44209,-5.57634 -2.1553,-8.40343 -2.29851,-3.79295 -4.33189,-5.51054 -11.2006,-9.46111 -2.83766,-1.6321 -6.27894,-3.80284 -7.6473,-4.82387 -2.86454,-2.13745 -7.95277,-6.99128 -10.61027,-10.12148 -5.68625,-6.69769 -10.02789,-15.45604 -11.82671,-23.85792 -0.67955,-3.17403 -0.72646,-3.81025 -0.72823,-9.8749 -0.002,-5.87227 0.0539,-6.69393 0.59091,-8.73125 1.45178,-5.50779 4.12342,-8.70882 8.52576,-10.21519 1.09369,-0.37423 2.17826,-0.49435 4.36563,-0.48349 5.29428,0.0263 9.5959,1.53772 17.59479,6.18217 4.8201,2.79872 17.11809,9.9057 26.85521,15.51953 l 4.23333,2.44069 0.0692,10.34377 c 0.0381,5.68907 0.003,10.34377 -0.0774,10.34377 -0.0806,0 -2.13584,-1.15008 -4.56713,-2.55573 -2.43131,-1.40564 -5.55164,-3.20826 -6.93409,-4.00582 -1.38245,-0.79756 -4.05374,-2.34087 -5.93622,-3.42958 -1.88246,-1.0887 -3.79508,-2.18863 -4.25024,-2.44429 -0.81275,-0.4565 -4.6976,-2.69917 -11.24479,-6.49147 -3.74712,-2.17042 -5.28482,-2.76895 -7.11387,-2.76895 -1.67404,0 -2.88084,0.80473 -3.70789,2.4725 -0.53882,1.08656 -0.63507,1.6691 -0.63385,3.83608 0.003,5.00021 1.65294,8.78795 5.49311,12.60913 2.21793,2.20697 2.84806,2.64103 8.60956,5.93067 7.5211,4.29432 11.03724,6.32694 12.94727,7.48459 1.99382,1.20847 6.43414,5.69679 8.40338,8.49426 4.55099,6.46508 7.55322,14.83633 8.69854,24.25459 0.61667,5.07104 0.41342,13.74929 -0.39676,16.93902 -2.1485,8.45902 -7.71523,12.02002 -16.34356,10.45488 z m -80.51427,-46.05532 c -5.09779,-1.09314 -11.63681,-4.60601 -17.06562,-9.16793 -9.76161,-8.20283 -16.36526,-20.30447 -18.61958,-34.12162 -0.63252,-3.8769 -0.95116,-7.0996 -0.70194,-7.0996 0.0985,0 2.81924,1.52617 6.04613,3.39148 3.22688,1.86531 7.19179,4.15461 8.81092,5.08732 l 2.94386,1.69584 0.28497,2.01507 c 0.61076,4.31885 2.86931,8.73352 5.81504,11.36636 2.67998,2.39533 6.0336,3.92307 7.85971,3.58049 1.21678,-0.22827 2.59485,-1.45794 3.21007,-2.8644 0.46447,-1.06184 0.49784,-2.62498 0.63106,-29.56382 0.12851,-25.98379 0.18046,-28.57995 0.60104,-30.03021 1.12046,-3.86369 3.64219,-7.545 6.84807,-9.99704 1.06437,-0.8141 4.25695,-2.81558 7.09461,-4.44772 4.93347,-2.83761 6.55845,-3.77531 15.875,-9.16081 2.25557,-1.30385 6.1251,-3.53872 8.59896,-4.96639 7.24417,-4.18063 8.16462,-4.8613 9.12828,-6.75024 1.31466,-2.57693 -7.9e-4,-4.87305 -4.01309,-7.00547 -3.43246,-1.82421 -7.99095,-2.45128 -11.64721,-1.60222 -3.13405,0.7278 -4.70471,1.43317 -9.93388,4.46121 -2.87647,1.66567 -6.71822,3.88666 -8.53723,4.93553 -1.81901,1.04886 -7.64289,4.41595 -12.94195,7.48241 -5.29905,3.06647 -9.7639,5.5709 -9.92187,5.56542 -0.15797,-0.005 -2.01363,-1.01705 -4.12368,-2.24792 -2.11005,-1.23088 -6.07489,-3.52793 -8.81075,-5.10456 -3.95145,-2.27714 -4.90355,-2.93151 -4.63021,-3.18231 0.18925,-0.17365 2.90393,-1.78179 6.03263,-3.57366 3.12869,-1.79186 8.18885,-4.70522 11.24479,-6.47412 3.05594,-1.76891 8.53281,-4.93074 12.17083,-7.0263 3.66026,-2.10837 7.17031,-4.32604 7.85882,-4.96526 1.48758,-1.38106 2.20875,-3.02473 1.9447,-4.43227 -0.27682,-1.47557 -2.14874,-3.2959 -4.71986,-4.58978 -5.48074,-2.75813 -11.9212,-2.44653 -17.66491,0.85465 -2.38655,1.37166 -14.64707,8.45389 -20.49167,11.83691 -2.32833,1.34771 -4.59052,2.65185 -5.02708,2.89809 -5.90476,3.33061 -10.80272,6.32072 -11.92694,7.28117 -2.48295,2.12126 -4.60543,5.33438 -5.7636,8.72526 -0.52981,1.55116 -0.54589,2.26274 -0.70238,31.08854 -0.17174,31.63447 -0.0977,29.89249 -1.47378,34.65509 -1.07377,3.71623 -4.08839,7.92232 -6.59229,9.19777 -3.98617,2.03051 -8.44909,1.81753 -14.28684,-0.68181 -7.20769,-3.08584 -13.95119,-8.31051 -19.15138,-14.83795 -1.14648,-1.4391 -2.35182,-3.09215 -2.67853,-3.67345 -0.59399,-1.05686 -0.59403,-1.05688 -1.47012,-0.69083 -1.30813,0.54658 -4.24133,0.73726 -6.33331,0.41173 -2.6213,-0.40791 -4.85163,-1.17379 -8.20208,-2.81656 -10.16075,-4.98194 -18.75488,-13.89741 -23.66867,-24.55367 -1.10284,-2.39166 -3.03737,-7.52951 -3.4273,-9.10243 -2.27605,-9.18127 -2.13576,-6.58251 -2.1428,-39.69234 l -0.006,-29.12384 0.65894,-2.07763 c 1.15685,-3.64756 3.75266,-7.27991 6.80227,-9.51853 l 1.35653,-0.99579 0.95319,0.53407 c 0.52426,0.29374 2.56054,1.46653 4.52507,2.60619 1.96453,1.13966 5.5364,3.19896 7.9375,4.57622 2.40109,1.37727 4.42494,2.55893 4.49743,2.62592 0.0725,0.067 -0.22516,0.36858 -0.66146,0.67021 -1.41428,0.97774 -4.73884,4.56379 -5.64064,6.08433 -0.48324,0.81479 -1.19762,2.35472 -1.5875,3.42206 l -0.70887,1.94061 v 28.97188 28.97188 l 0.62099,1.9777 c 1.44219,4.59299 3.84339,7.83297 7.53002,10.16035 1.95757,1.23582 3.43082,1.75257 4.99657,1.75257 1.26301,0 1.44379,-0.0844 2.46601,-1.15125 0.62521,-0.6525 1.25906,-1.65546 1.4631,-2.3151 0.29019,-0.93817 0.38815,-6.705 0.5052,-29.73886 l 0.14519,-28.575 0.61724,-1.71979 c 1.15384,-3.2149 3.39523,-6.36185 6.11739,-8.58894 0.98502,-0.80587 1.8768,-1.46523 1.98172,-1.46523 0.18869,0 1.0488,0.48842 10.86282,6.16851 2.7649,1.60025 5.47259,3.15894 6.01709,3.46375 0.5445,0.30481 0.99098,0.63539 0.99219,0.73462 10e-4,0.0992 -0.38477,0.45135 -0.85772,0.78249 -3.79207,2.65508 -6.91393,7.4984 -7.62285,11.82625 -0.35127,2.14444 -0.32052,54.73814 0.0333,56.92855 0.94644,5.85951 4.41527,10.78094 9.33413,13.24291 3.20641,1.60486 5.52076,1.36977 6.79662,-0.6904 1.32146,-2.13378 1.31455,-1.96911 1.31455,-31.33269 0,-26.88877 0.0102,-27.43711 0.54723,-29.37498 0.91914,-3.31681 2.1827,-5.38862 5.00242,-8.20222 1.95167,-1.94744 3.11697,-2.85112 5.16598,-4.00616 1.45521,-0.82031 4.55083,-2.5946 6.87916,-3.94287 2.32834,-1.34827 4.76912,-2.74636 5.42396,-3.10686 0.65485,-0.3605 1.30969,-0.74267 1.45521,-0.84927 0.14552,-0.1066 3.12208,-1.83545 6.61458,-3.84188 3.4925,-2.00644 8.19547,-4.71268 10.45105,-6.01387 10.02874,-5.78536 19.53263,-8.39122 30.62726,-8.39766 11.68625,-0.007 20.89272,2.86514 30.88128,9.63328 3.10081,2.10108 7.17484,6.01816 8.34765,8.02606 l 0.91711,1.57015 1.98574,0.3455 c 6.56915,1.14298 15.26727,4.68536 22.16487,9.02681 8.34894,5.25495 12.47435,10.28847 12.49065,15.24016 0.008,2.44015 -0.65183,4.23756 -2.30729,6.28486 -1.58652,1.96206 -3.43836,3.19829 -12.08932,8.07045 -0.44586,0.25111 -4.26347,2.45195 -8.48358,4.89075 -4.2201,2.4388 -11.30432,6.52415 -15.74271,9.07857 -4.43838,2.55441 -8.93721,5.16113 -9.9974,5.79271 -1.06019,0.63157 -2.03454,1.14832 -2.16523,1.14832 -0.13069,0 -1.25664,0.96458 -2.5021,2.14352 -2.61469,2.47502 -4.27943,4.97304 -5.36001,8.04294 l -0.74505,2.11666 -0.14841,29.50105 c -0.15705,31.21803 -0.12221,30.32963 -1.33827,34.12057 -2.72311,8.48905 -8.18408,12.0902 -15.84353,10.44774 z m -20.13388,-61.44883 c -0.66889,-0.39285 -4.62772,-2.6787 -8.79739,-5.07966 l -7.58123,-4.36539 V 289.4598 c 0,-6.05009 0.0996,-10.25284 0.24295,-10.25284 0.21238,0 3.26598,1.7312 14.8383,8.41243 l 2.77813,1.60394 0.0692,10.33765 c 0.0381,5.6857 -0.0215,10.33165 -0.1323,10.32431 -0.11083,-0.007 -0.74878,-0.33475 -1.41768,-0.7276 z"
         id="path1209"
         inkscape:connector-curvature="0" />
      <path
         style="fill:#808185;stroke-width:1"
         d="m 460.6024,329.34594 c -5.41664,-1.09201 -12.67838,-5.07377 -18.30126,-10.03495 -2.77733,-2.4505 -6.21808,-6.33769 -8.24729,-9.31739 l -1.28083,-1.88079 -1.23271,0.3935 c -2.02344,0.64591 -5.82145,0.50386 -8.64104,-0.32319 -4.56871,-1.3401 -10.01699,-4.34425 -14.66615,-8.08681 -8.52533,-6.86289 -14.8696,-16.81312 -17.95825,-28.1654 -2.19782,-8.07803 -2.16888,-7.54925 -2.1644,-39.53838 0.004,-31.23259 -0.092,-29.53994 1.91335,-33.61891 0.88743,-1.8051 1.57757,-2.72492 3.4968,-4.66054 1.31513,-1.32637 2.62951,-2.53515 2.92084,-2.68617 0.52617,-0.27276 2.05339,0.55465 16.32735,8.84577 l 2.04036,1.18516 -1.63389,1.23758 c -3.00151,2.27346 -5.39883,5.75557 -6.58999,9.57195 l -0.61935,1.98437 v 28.17813 c 0,31.43549 -0.10989,29.43631 1.85426,33.73438 1.994,4.36337 5.77272,7.85159 9.74861,8.99916 1.30068,0.37541 1.73201,0.39568 2.69323,0.12655 1.36771,-0.38293 2.00965,-1.01493 2.82274,-2.77901 l 0.60824,-1.31962 0.14694,-28.575 c 0.10055,-19.55437 0.23833,-28.86734 0.43644,-29.50104 0.84651,-2.70781 1.64721,-4.29902 3.275,-6.50838 1.18396,-1.60694 4.11302,-4.29143 4.90887,-4.49897 0.39755,-0.10367 1.61389,0.46205 4.10105,1.90743 1.94473,1.13015 4.30977,2.48958 5.25566,3.02096 0.94588,0.53138 3.30027,1.88925 5.23196,3.01748 l 3.51217,2.05132 -0.99863,0.72482 c -1.88166,1.36574 -4.73212,4.69858 -5.83549,6.82301 -2.17614,4.18997 -2.0423,2.0002 -2.0423,33.41441 0,27.85377 0.001,27.91817 0.57739,30.07588 1.51228,5.66345 4.80704,9.84648 9.47676,12.03171 3.91972,1.83426 6.68887,0.64257 7.52079,-3.23653 0.19231,-0.89673 0.28443,-10.05494 0.28443,-28.27747 0,-30.13674 -0.0439,-29.33922 1.82731,-33.18319 1.27624,-2.62173 3.07782,-4.894 5.25797,-6.63171 0.90241,-0.71927 5.18403,-3.3466 9.51472,-5.83851 4.33068,-2.49191 10.25521,-5.90769 13.16563,-7.59062 2.91041,-1.68293 7.60546,-4.39661 10.43343,-6.03039 6.08552,-3.51575 8.00042,-4.42129 12.58532,-5.95153 10.36765,-3.46027 21.34571,-4.22041 31.00418,-2.14676 10.83706,2.32669 23.56002,9.99064 27.63693,16.64772 0.86043,1.40497 0.94312,1.46362 2.47764,1.75725 5.23741,1.00218 10.31052,2.72361 15.61042,5.29699 10.50199,5.09926 17.47547,11.18408 19.06955,16.63942 1.29365,4.42726 -1.26865,9.31203 -6.40718,12.21468 -0.85243,0.48152 -4.16925,2.39042 -7.37071,4.24201 -3.20146,1.85158 -9.27364,5.35428 -13.49375,7.78376 -4.2201,2.42948 -8.44682,4.87039 -9.39271,5.42424 -9.32854,5.46219 -13.33999,7.68922 -13.6417,7.57345 -0.29584,-0.11353 -4.95175,-2.77719 -16.19067,-9.26275 -1.07507,-0.62038 -1.31465,-0.86946 -1.05833,-1.10023 0.25641,-0.23087 12.5074,-7.37013 17.00008,-9.9068 0.77782,-0.43918 7.5882,-4.37145 12.03854,-6.95099 1.23693,-0.71695 3.26099,-1.87908 4.49792,-2.58251 4.03995,-2.29748 5.55625,-4.05608 5.55625,-6.44413 0,-1.59605 -1.18881,-3.1284 -3.55589,-4.58346 -2.74884,-1.68973 -4.56239,-2.23166 -7.9938,-2.38869 -3.37907,-0.15463 -6.04857,0.30668 -8.69094,1.50188 -0.87312,0.39494 -4.86172,2.60749 -8.86354,4.91678 -4.00182,2.30929 -9.77635,5.64229 -12.83229,7.40665 -12.32771,7.11749 -14.92364,8.60074 -15.31656,8.75152 -0.25169,0.0966 -3.1012,-1.40544 -7.36367,-3.88151 -3.82421,-2.22149 -7.78654,-4.51042 -8.80519,-5.08652 -1.01864,-0.57609 -1.88805,-1.07798 -1.932,-1.11531 -0.044,-0.0373 0.43229,-0.35792 1.05833,-0.71245 1.65017,-0.93449 10.43233,-6.00054 20.32055,-11.72205 4.72942,-2.73653 9.84911,-5.68981 11.37708,-6.56284 3.86185,-2.20652 5.11401,-3.16527 6.06061,-4.64041 1.43744,-2.24006 0.96886,-4.30146 -1.40783,-6.19338 -4.48803,-3.57264 -11.50027,-4.39764 -17.53624,-2.06318 -0.75576,0.2923 -5.87544,3.13188 -11.37709,6.31019 -5.50165,3.17831 -13.69393,7.89954 -18.20508,10.49161 -9.96775,5.72741 -9.75919,5.58921 -12.00973,7.95844 -1.97829,2.08262 -3.48319,4.53024 -4.36033,7.09177 -0.55256,1.61365 -0.56116,1.99062 -0.70437,30.87006 -0.14276,28.7886 -0.1538,29.27574 -0.72046,31.80113 -1.117,4.97799 -2.97253,8.73653 -5.41887,10.97643 -1.50514,1.37812 -2.88688,2.09227 -5.02218,2.5957 -1.98579,0.46818 -3.45262,0.469 -5.76301,0.003 z"
         id="path1207"
         inkscape:connector-curvature="0" />
      <path
         style="fill:#ed672f;stroke-width:1"
         d="m 551.61906,280.36482 c -3.41974,-1.97648 -7.37865,-4.26161 -8.79759,-5.07806 -1.98367,-1.14141 -2.50341,-1.55332 -2.24896,-1.78238 0.25612,-0.23056 12.51134,-7.37217 16.99968,-9.90639 0.77782,-0.43918 7.5882,-4.37145 12.03854,-6.95099 1.23693,-0.71695 3.26099,-1.87908 4.49792,-2.58251 4.03995,-2.29748 5.55625,-4.05608 5.55625,-6.44413 0,-1.59605 -1.18881,-3.1284 -3.55589,-4.58346 -2.74884,-1.68973 -4.56239,-2.23166 -7.9938,-2.38869 -3.37907,-0.15463 -6.04857,0.30668 -8.69094,1.50188 -0.87312,0.39494 -4.86172,2.60749 -8.86354,4.91678 -4.00182,2.30929 -9.77635,5.64229 -12.83229,7.40665 -12.32771,7.11749 -14.92364,8.60074 -15.31656,8.75152 -0.25169,0.0966 -3.1012,-1.40544 -7.36367,-3.88151 -3.82421,-2.22149 -7.78654,-4.51042 -8.80519,-5.08652 -1.01864,-0.57609 -1.88805,-1.07798 -1.932,-1.11531 -0.044,-0.0373 0.43229,-0.35792 1.05833,-0.71245 1.65017,-0.93449 10.43233,-6.00054 20.32055,-11.72205 4.72942,-2.73653 9.84911,-5.68981 11.37708,-6.56284 3.86185,-2.20652 5.11401,-3.16527 6.06061,-4.64041 1.43744,-2.24006 0.96886,-4.30146 -1.40783,-6.19338 -4.48803,-3.57264 -11.50027,-4.39764 -17.53624,-2.06318 -0.75576,0.2923 -5.87544,3.13188 -11.37709,6.31019 -22.68943,13.10773 -26.22169,15.13687 -26.34964,15.13687 -0.0737,0 -2.02183,-1.104 -4.32911,-2.45333 -2.30729,-1.34933 -6.2489,-3.62731 -8.75914,-5.06216 -2.51023,-1.43485 -4.56406,-2.68589 -4.56406,-2.78008 0,-0.0942 3.54211,-2.20855 7.87135,-4.69859 4.32925,-2.49003 10.13355,-5.83591 12.89844,-7.43529 17.70119,-10.23938 17.18625,-9.97166 22.75417,-11.82999 10.36765,-3.46027 21.34571,-4.22041 31.00418,-2.14676 10.83706,2.32669 23.56002,9.99064 27.63693,16.64772 0.86043,1.40497 0.94312,1.46362 2.47764,1.75725 5.23741,1.00218 10.31052,2.72361 15.61042,5.29699 10.50199,5.09926 17.47547,11.18408 19.06955,16.63942 1.29365,4.42726 -1.26865,9.31203 -6.40718,12.21468 -0.85243,0.48152 -4.16925,2.39042 -7.37071,4.24201 -3.20146,1.85158 -9.27364,5.35428 -13.49375,7.78376 -4.2201,2.42948 -8.44682,4.87039 -9.39271,5.42424 -7.1302,4.17499 -13.25493,7.67424 -13.42408,7.66962 -0.11108,-0.003 -2.99993,-1.62264 -6.41967,-3.59912 z"
         id="path1205"
         inkscape:connector-curvature="0" />
    </g>
  </g>
</svg>
