<svg viewBox="0 0 256 261" fill="none" xmlns="http://www.w3.org/2000/svg">
<path d="M192.44 178.645H224.22V102.339L188.415 66.5346L165.943 89.0069L192.44 115.504V178.645ZM224.304 194.576H178.018H113.452L86.9545 168.079L98.1906 156.843L120.076 178.728H165.104L120.747 134.287L132.067 122.967L176.424 167.325V122.296L154.623 100.495L165.775 89.3423L110.685 34H56.3485H0L31.696 65.696V65.7799H31.8637H97.436L120.663 89.0069L86.7029 122.967L63.4759 99.7399V81.7118H31.696V112.905L86.7029 167.912L64.3144 190.3L100.119 226.105H154.455H256L224.304 194.576Z" fill="white"/>
</svg>
