<svg version="1.1" viewBox="0 0 62.1 43.7">
 <g transform="translate(-39.7 -113)">
  <g transform="matrix(.353 0 0 -.353 36.8 169)">
    <g transform="translate(78 69.8)">
      <path fill="currentColor" d="m0 0v52.3l46-26.2zm102 68.8c-2.02 7.62-7.99 13.6-15.6 15.7-13.7 3.7-68.8 3.7-68.8 3.7s-55 0-68.8-3.7c-7.57-2.04-13.5-8.04-15.6-15.7-3.68-13.8-3.68-42.6-3.68-42.6s0-28.8 3.68-42.6c2.02-7.62 7.99-13.6 15.6-15.7 13.7-3.7 68.8-3.7 68.8-3.7s55 0 68.8 3.7c7.57 2.04 13.5 8.04 15.6 15.7 3.68 13.8 3.68 42.6 3.68 42.6s0 28.8-3.68 42.6"/>
    </g>
    </g>
  </g>
 </g>
</svg>
