<svg version="1.1" xmlns="http://www.w3.org/2000/svg" xmlns:xlink="http://www.w3.org/1999/xlink" x="0px" y="0px" viewBox="0 0 77.8 76.9" xml:space="preserve"><style type="text/css">
	.logo-only-st0{fill:#70CBF3;}
	.logo-only-st1{fill:#EFC31A;}
	.logo-only-st2{fill:#EF589C;}
	.logo-only-st3{fill:none;}
	.logo-only-st4{fill:#E23A85;}
</style><g id="Layer_2"></g><g id="Layer_1"><g id="Layer_1_00000039105277936162181280000009004520876740652702_"><g><g><path class="logo-only-st0" d="M73.4,33.6c-0.6,1-1.9,3.2-4.1,5.5l0,0c-0.2,4.6-1.4,9-3.4,12.8l-3.6-7.3c-2.3,1.2-5,2.2-8,2.7
					c-1.3,0.2-2.4,0.4-3.4,0.6L57,60.7l-0.5,2c-5,3.5-11.1,5.6-17.7,5.6s-12.7-2.1-17.7-5.6l-0.5-2L26.9,48c-1-0.2-2.1-0.4-3.4-0.6
					c-3-0.5-5.7-1.4-8-2.7L11.9,52c-2-3.9-3.2-8.2-3.4-12.8l0,0c-2.2-2.4-3.5-4.5-4.1-5.6c-0.2,1.4-0.3,2.8-0.3,4.3
					c0,19.2,15.6,34.8,34.8,34.8c19.2,0,34.8-15.6,34.8-34.8C73.7,36.4,73.6,35,73.4,33.6z"></path></g><path class="logo-only-st1" d="M38.9,48.4c-0.7,0.8-2.5,3-3.9,6c0.9,1.2,1.9,2.1,2.8,2.9c0.4,0.3,0.7,0.5,1,0.5c0.3,0,0.6-0.2,1-0.5
				c1-0.8,1.9-1.7,2.8-2.9C41.4,51.4,39.6,49.2,38.9,48.4z"></path><path class="logo-only-st0" d="M38.9,36.1c0,0-3.2,3.7-4.5,5.9c0,0,1.2,2.6,2.8,3.8c0.8,0.4,1.2,1.5,1.2,1.5s0.2,0.4,0.5,0.4
				c0.3-0.1,0.5-0.4,0.5-0.4s0.5-1.2,1.2-1.5c1.6-1.3,2.8-3.8,2.8-3.8C42.1,39.8,38.9,36.1,38.9,36.1z"></path><g><path class="logo-only-st2" d="M43.9,43c-0.1-0.3-0.2-0.6-0.5-1c0,0-1.2,2.6-2.8,3.8c-0.8,0.4-1.2,1.5-1.2,1.5s-0.2,0.4-0.5,0.4
					c-0.3-0.1-0.5-0.4-0.5-0.4s-0.5-1.2-1.2-1.5c-1.6-1.2-2.8-3.8-2.8-3.8c-0.2,0.4-0.4,0.7-0.5,1c-0.5,1.9-1.9,6.6-0.5,8.9
					c0.5,0.9,1.1,1.7,1.6,2.5c1.4-3,3.2-5.2,3.9-6c0.7,0.8,2.5,3,3.8,6c0.5-0.7,1.1-1.5,1.6-2.5C45.7,49.6,44.4,44.9,43.9,43z"></path></g><g><g><path class="logo-only-st0" d="M28.5,25.7c-2.7,1.5-3.6,4.2-3.6,4.2c-0.9-0.2-1.7,0-2.1,0.2l-0.6,1.2c1.3,1.6,4.4,4.8,9.3,7.1l2.5-5.1
						C27.9,30.9,28.5,25.7,28.5,25.7z"></path></g><g><path class="logo-only-st0" d="M49.3,25.7c2.7,1.5,3.6,4.2,3.6,4.2c0.9-0.2,1.7,0,2.1,0.2l0.6,1.2c-1.3,1.6-4.4,4.8-9.3,7.1l-2.5-5.1
						C49.9,30.9,49.3,25.7,49.3,25.7z"></path></g></g><g><path class="logo-only-st3" d="M57.5,40c3.8-1.9,10.3-6.3,9.7-13.3l0,0l0,0l0,0C65.3,32.4,60.8,37.1,57.5,40z"></path><path class="logo-only-st2" d="M44.3,44.5C44.3,44.4,44.2,44.4,44.3,44.5C44.3,44.4,44.3,44.4,44.3,44.5z"></path><path class="logo-only-st2" d="M44.7,46.3c0-0.1,0-0.2,0-0.3C44.6,46.1,44.6,46.2,44.7,46.3z"></path><path class="logo-only-st2" d="M44.9,48.1c0,0,0-0.1,0-0.1C44.9,48,44.9,48,44.9,48.1z"></path><path class="logo-only-st2" d="M44.8,47.2c0-0.1,0-0.2,0-0.3C44.8,47,44.8,47.1,44.8,47.2z"></path><path class="logo-only-st2" d="M44.5,45.4c0-0.1,0-0.2,0-0.2C44.4,45.2,44.5,45.3,44.5,45.4z"></path><path class="logo-only-st2" d="M68,18.8c0.4,2.8,0.1,5.4-0.8,7.9l0,0l0,0c0.6,7-5.9,11.4-9.7,13.3c-2.2,1.9-3.9,3-3.9,3
					c-5.3,2.5-7.7,5.5-8.5,6.6c1.8-0.8,4.6-1.6,9.1-2.2c6.9-1,11.9-4.8,15-8.2c2.2-2.4,3.5-4.5,4.1-5.6C72.7,28.2,70.8,23.2,68,18.8
					z"></path><path class="logo-only-st2" d="M45,49c0,0.1,0,0.1,0,0.2C45,49.1,45,49.1,45,49z"></path><path class="logo-only-st4" d="M45,49.2c0,0.3,0,0.5,0,0.8v0c0,0,0.1-0.1,0.2-0.4c-0.1,0-0.2,0.1-0.2,0.1C45,49.5,45,49.4,45,49.2z"></path><path class="logo-only-st4" d="M44.6,46c0-0.2-0.1-0.4-0.1-0.6C44.5,45.6,44.6,45.8,44.6,46z"></path><path class="logo-only-st4" d="M44.8,46.9c0-0.2-0.1-0.4-0.1-0.6C44.7,46.5,44.7,46.7,44.8,46.9z"></path><path class="logo-only-st4" d="M44.9,48c0-0.3-0.1-0.5-0.1-0.8C44.8,47.4,44.9,47.7,44.9,48z"></path><path class="logo-only-st4" d="M44.9,48.1c0,0.3,0,0.6,0,0.9C45,48.7,44.9,48.4,44.9,48.1z"></path><path class="logo-only-st4" d="M44.4,45.1c0-0.2-0.1-0.5-0.2-0.7C44.3,44.7,44.4,44.9,44.4,45.1z"></path><g><path class="logo-only-st3" d="M10.5,26.7c-0.6,7,5.9,11.4,9.7,13.3C17,37.1,12.5,32.4,10.5,26.7L10.5,26.7L10.5,26.7L10.5,26.7z"></path><path class="logo-only-st2" d="M33.2,46c0,0.1,0,0.2,0,0.3C33.1,46.2,33.2,46.1,33.2,46z"></path><path class="logo-only-st2" d="M33,46.9c0,0.1,0,0.2,0,0.3C33,47.1,33,47,33,46.9z"></path><path class="logo-only-st2" d="M32.9,48c0,0,0,0.1,0,0.1C32.9,48,32.9,48,32.9,48z"></path><path class="logo-only-st2" d="M32.8,49.2c0-0.1,0-0.1,0-0.2C32.8,49.1,32.8,49.1,32.8,49.2z"></path><path class="logo-only-st2" d="M33.5,44.4C33.5,44.4,33.5,44.4,33.5,44.4C33.5,44.4,33.5,44.4,33.5,44.4z"></path><path class="logo-only-st2" d="M24.1,43c0,0-1.7-1.1-3.9-3c-3.8-1.9-10.4-6.3-9.7-13.3l0,0l0,0c-0.8-2.5-1.2-5.1-0.8-7.9
						C7,23.2,5,28.2,4.4,33.6c0.6,1,1.9,3.2,4.1,5.6c3.2,3.4,8.1,7.2,15.1,8.2c4.5,0.7,7.3,1.5,9.1,2.2C31.9,48.5,29.4,45.5,24.1,43
						z"></path><path class="logo-only-st2" d="M33.4,45.1c0,0.1,0,0.2,0,0.2C33.3,45.3,33.3,45.2,33.4,45.1z"></path><path class="logo-only-st4" d="M33.1,46.3c0,0.2-0.1,0.4-0.1,0.6C33,46.7,33.1,46.5,33.1,46.3z"></path><path class="logo-only-st4" d="M33.5,44.5c0,0.2-0.1,0.4-0.2,0.7C33.4,44.9,33.5,44.7,33.5,44.5z"></path><path class="logo-only-st4" d="M33.3,45.4c0,0.2-0.1,0.4-0.1,0.6C33.2,45.8,33.3,45.6,33.3,45.4z"></path><path class="logo-only-st4" d="M33,47.2c0,0.3-0.1,0.5-0.1,0.8C32.9,47.7,32.9,47.4,33,47.2z"></path><path class="logo-only-st4" d="M32.8,49c0-0.3,0-0.6,0-0.9C32.8,48.4,32.8,48.7,32.8,49z"></path><path class="logo-only-st4" d="M32.6,49.6c0.2,0.2,0.2,0.4,0.2,0.4v0c0-0.2,0-0.5,0-0.8c0,0.2,0,0.3,0,0.5C32.8,49.7,32.7,49.6,32.6,49.6
						z"></path></g></g><path class="logo-only-st4" d="M68,18.8C61.8,9.3,51.1,3.1,39,3.1l0,0h0h0l0,0v0C26.7,3.1,16,9.3,9.8,18.8c-0.4,2.8-0.1,5.4,0.8,7.9
				C13.8,36.2,24.1,43,24.1,43c6.5,3.1,8.7,7,8.7,7v0c-0.2-2.4,0.6-5.5,1.1-7c0.1-0.3,0.2-0.6,0.5-1c-6.8-1.7-14.3-8.2-16.2-14
				c-1.9-5.8,1.7-13.8,1.7-14l0,0c5.2-4.2,11.8-6.6,18.9-6.7h0.1c7.2,0,13.8,2.5,19,6.7l0,0c0.1,0.1,3.6,8.2,1.7,14
				c-1.9,5.8-9.4,12.3-16.2,14c0.2,0.4,0.4,0.7,0.5,1c0.4,1.5,1.3,4.5,1.1,7v0c0,0,2.2-3.9,8.7-7c0,0,10.4-6.8,13.6-16.3
				C68.1,24.2,68.4,21.6,68,18.8z"></path><path class="logo-only-st2" d="M49.3,25.7c2.7,1.5,3.6,4.2,3.6,4.2c0.9-0.2,1.7,0,2.1,0.2L43.9,7.8c-1.6-0.3-3.3-0.4-5-0.4h-0.1
				c-1.7,0-3.3,0.2-5,0.4L22.8,30.1c0.5-0.2,1.2-0.3,2.1-0.2c0,0,0.9-2.7,3.6-4.2c0,0-0.6,5.2,5.4,7.7l4.1-8.6c0,0,0.2-0.6,0.5-0.6
				h0.2h0.2h0h0.2h0.2c0.3,0,0.5,0.6,0.5,0.6l4.1,8.6C49.9,30.9,49.3,25.7,49.3,25.7z"></path></g></g></g></svg>