<?xml version="1.0" encoding="UTF-8" standalone="no"?>
<!-- Created with Inkscape (http://www.inkscape.org/) -->

<svg
   xmlns:dc="http://purl.org/dc/elements/1.1/"
   xmlns:cc="http://creativecommons.org/ns#"
   xmlns:rdf="http://www.w3.org/1999/02/22-rdf-syntax-ns#"
   xmlns:svg="http://www.w3.org/2000/svg"
   xmlns="http://www.w3.org/2000/svg"
   xmlns:sodipodi="http://sodipodi.sourceforge.net/DTD/sodipodi-0.dtd"
   xmlns:inkscape="http://www.inkscape.org/namespaces/inkscape"
   width="67.560043mm"
   height="49.868351mm"
   viewBox="0 0 67.560043 49.868348"
   version="1.1"
   id="svg8"
   inkscape:version="0.92.4 (5da689c313, 2019-01-14)"
   sodipodi:docname="firefight.svg">
  <defs
     id="defs2" />
  <sodipodi:namedview
     id="base"
     pagecolor="#ffffff"
     bordercolor="#666666"
     borderopacity="1.0"
     inkscape:pageopacity="0.0"
     inkscape:pageshadow="2"
     inkscape:zoom="1.4"
     inkscape:cx="122.61192"
     inkscape:cy="71.405163"
     inkscape:document-units="mm"
     inkscape:current-layer="layer1"
     showgrid="false"
     inkscape:window-width="1920"
     inkscape:window-height="1027"
     inkscape:window-x="-8"
     inkscape:window-y="-8"
     inkscape:window-maximized="1" />
  <metadata
     id="metadata5">
    <rdf:RDF>
      <cc:Work
         rdf:about="">
        <dc:format>image/svg+xml</dc:format>
        <dc:type
           rdf:resource="http://purl.org/dc/dcmitype/StillImage" />
        <dc:title></dc:title>
      </cc:Work>
    </rdf:RDF>
  </metadata>
  <g
     inkscape:label="Layer 1"
     inkscape:groupmode="layer"
     id="layer1"
     transform="translate(-33.297136,-104.23403)">
    <g
       id="g946"
       transform="translate(8.5989579,1.6063992)">
      <path
         style="fill:#fdad00;stroke-width:1"
         d="m 50.325935,149.80887 -5.614394,-2.68631 v -3.92827 -3.92827 h -2.072689 -2.072689 l -2.094498,-5.61667 c -1.151974,-3.08917 -2.134186,-5.70854 -2.182693,-5.82083 -0.04851,-0.11229 1.231415,-0.20417 2.844271,-0.20417 1.612856,0 2.932465,-0.0579 2.932465,-0.12858 0,-0.0707 -0.720503,-1.11253 -1.601117,-2.31511 l -1.601117,-2.18651 -5.05181,-0.13229 -5.05181,-0.1323 -1.947905,-5.42395 c -1.071348,-2.98318 -2.015068,-5.63374 -2.097156,-5.89015 -0.14102,-0.44047 0.408812,-0.46236 9.970583,-0.39687 l 10.119833,0.0693 2.797437,3.86042 c 1.53859,2.12323 4.13689,5.71182 5.773999,7.97464 l 2.976562,4.11423 v 12.729 c 0,7.00095 -0.0929,12.729 -0.206441,12.729 -0.11354,0 -2.732915,-1.20884 -5.820831,-2.68632 z M 60.586541,139.76509 V 127.035 l 5.842703,-8.0397 5.842706,-8.03969 h 10.050124 c 9.451633,0 10.041296,0.0276 9.901877,0.46302 -0.08154,0.25466 -1.024805,2.9038 -2.096151,5.88698 l -1.947905,5.42395 -5.067231,0.1323 -5.067231,0.13229 -1.585055,2.24896 -1.585055,2.24895 2.909776,0.0748 c 1.600375,0.0412 2.90903,0.10068 2.90812,0.1323 -7.93e-4,0.0316 -0.983175,2.67685 -2.182812,5.87831 l -2.181159,5.82083 -2.050521,0.0773 -2.05052,0.0773 v 3.78593 3.78593 l -5.622396,2.68599 c -3.092317,1.47729 -5.711692,2.68565 -5.820833,2.68523 -0.109141,-5.3e-4 -0.198437,-5.7293 -0.198437,-12.73085 z m -6.217708,-22.93425 c -2.182813,-2.99144 -4.000983,-5.5669 -4.040379,-5.72325 -0.0394,-0.15635 1.776307,-2.1283 4.034896,-4.38212 l 4.106524,-4.09784 4.101041,4.09464 c 2.255573,2.25205 4.098462,4.15561 4.095308,4.23013 -0.0076,0.18045 -7.611966,10.63477 -8.014429,11.01812 -0.238668,0.22733 -1.268384,-1.00835 -4.282961,-5.13968 z"
         id="path950"
         inkscape:connector-curvature="0" />
      <path
         style="fill:#fd9c00;stroke-width:1"
         d="m 50.325935,149.80887 -5.614394,-2.68631 0.01378,-1.084 c 0.01363,-1.07207 0.0493,-1.11084 3.241146,-3.52283 1.775053,-1.34136 4.388228,-3.3388 5.807056,-4.43877 l 2.579687,-1.99994 v 8.20908 c 0,4.515 -0.0929,8.20909 -0.206441,8.20909 -0.11354,0 -2.732915,-1.20884 -5.820831,-2.68632 z m 10.26458,-7.16941 0.004,-9.85573 14.130917,-10.91406 14.130913,-10.91406 h 1.757942 c 1.554316,0 1.740768,0.0536 1.609693,0.46302 -0.08154,0.25466 -1.024805,2.9038 -2.096151,5.88698 l -1.947904,5.42395 -5.067231,0.1323 -5.067231,0.13229 -1.585055,2.24896 -1.585056,2.24895 2.909777,0.0748 c 1.600374,0.0412 2.90903,0.10068 2.90812,0.1323 -7.94e-4,0.0316 -0.983176,2.67685 -2.182813,5.87831 l -2.181159,5.82083 -2.05052,0.0773 -2.050521,0.0773 v 3.78593 3.78593 l -5.622396,2.68599 c -3.092317,1.47729 -5.711692,2.68565 -5.820833,2.68523 -0.10914,-5.3e-4 -0.196649,-4.43583 -0.194463,-9.85648 z m -24.1869,-14.38013 c -0.2379,-0.61996 -0.222515,-0.63498 0.650625,-0.63498 0.848548,0 0.846902,0.33215 -0.0039,0.78749 -0.367915,0.1969 -0.527041,0.15937 -0.646722,-0.15251 z m 3.317997,-4.07577 -0.888888,-1.31048 -5.036278,-0.0718 -5.036277,-0.0718 -1.948063,-5.42395 c -1.071434,-2.98318 -2.015225,-5.63374 -2.097313,-5.89015 -0.141019,-0.44047 0.408677,-0.46236 9.967584,-0.39687 l 10.116835,0.0693 2.590583,3.54946 c 1.424821,1.95221 2.530747,3.64628 2.457613,3.76462 -0.143732,0.23256 -9.009752,7.11016 -9.151283,7.09888 -0.04709,-0.004 -0.485625,-0.59653 -0.974513,-1.3173 z m 12.175367,-10.74088 c -0.896054,-1.23222 -1.629188,-2.32711 -1.629188,-2.43309 0,-0.10597 1.845011,-2.03481 4.100026,-4.2863 l 4.100028,-4.09363 2.514555,2.5041 c 1.383006,1.37726 2.514557,2.57949 2.514557,2.67163 0,0.0922 -1.398984,1.2403 -3.108854,2.55147 -1.70987,1.31116 -3.953298,3.04595 -4.985395,3.85508 l -1.876544,1.47115 z"
         id="path948"
         inkscape:connector-curvature="0" />
    </g>
  </g>
</svg>
