<?xml version="1.0" encoding="UTF-8" standalone="no"?>
<!-- Created with Inkscape (http://www.inkscape.org/) -->

<svg
   xmlns:dc="http://purl.org/dc/elements/1.1/"
   xmlns:cc="http://creativecommons.org/ns#"
   xmlns:rdf="http://www.w3.org/1999/02/22-rdf-syntax-ns#"
   xmlns:svg="http://www.w3.org/2000/svg"
   xmlns="http://www.w3.org/2000/svg"
   xmlns:sodipodi="http://sodipodi.sourceforge.net/DTD/sodipodi-0.dtd"
   xmlns:inkscape="http://www.inkscape.org/namespaces/inkscape"
  
  
   viewBox="0 0 105.83334 105.83334"
   version="1.1"
   id="svg8"
   inkscape:version="0.92.4 (5da689c313, 2019-01-14)"
   sodipodi:docname="rakegg.svg">
  <defs
     id="defs2" />
  <sodipodi:namedview
     id="base"
     pagecolor="#ffffff"
     bordercolor="#666666"
     borderopacity="1.0"
     inkscape:pageopacity="0.0"
     inkscape:pageshadow="2"
     inkscape:zoom="1.4"
     inkscape:cx="168.66802"
     inkscape:cy="174.47435"
     inkscape:document-units="mm"
     inkscape:current-layer="layer1"
     showgrid="false"
     inkscape:window-width="1920"
     inkscape:window-height="1027"
     inkscape:window-x="-8"
     inkscape:window-y="-8"
     inkscape:window-maximized="1" />
  <metadata
     id="metadata5">
    <rdf:RDF>
      <cc:Work
         rdf:about="">
        <dc:format>image/svg+xml</dc:format>
        <dc:type
           rdf:resource="http://purl.org/dc/dcmitype/StillImage" />
        <dc:title></dc:title>
      </cc:Work>
    </rdf:RDF>
  </metadata>
  <g
     inkscape:label="Layer 1"
     inkscape:groupmode="layer"
     id="layer1"
     transform="translate(-60.60752,-43.480813)">
    <g
       id="g844"
       transform="translate(-7.6171812,-4.8108515)">
      <path
         style="fill:#f9fcf8;stroke-width:1"
         d="M 68.224701,101.20833 V 48.291664 h 52.916669 52.91667 V 101.20833 154.125 H 121.14137 68.224701 Z"
         id="path848"
         inkscape:connector-curvature="0" />
      <path
         style="fill:#000000;stroke-width:1"
         d="M 68.224701,101.20833 V 48.291664 h 52.916669 52.91667 V 101.20833 154.125 H 121.14137 68.224701 Z m 82.204519,29.52397 0.74236,-0.63854 v -28.8854 -28.885402 l -0.74236,-0.638563 -0.74236,-0.638563 H 121.14137 92.595877 l -0.742358,0.63851 -0.742358,0.63851 -0.07635,28.002638 c -0.04199,15.40145 -0.0043,28.40289 0.08368,28.8921 0.08801,0.4892 0.444382,1.17381 0.791925,1.52135 l 0.631897,0.6319 h 28.572277 28.57227 z m -44.89827,-11.0366 c -4.15827,-1.90471 -4.38988,-7.56234 -0.40518,-9.89752 2.20083,-1.28978 4.95195,-0.85819 6.71385,1.05325 2.17262,2.35701 2.15661,5.38994 -0.0405,7.67118 -1.70609,1.77143 -4.01753,2.20402 -6.26819,1.17309 z m 26.85521,0.16828 c -1.28443,-0.45041 -2.93529,-2.21924 -3.3014,-3.5373 -1.03454,-3.72457 1.54492,-7.20257 5.36727,-7.23692 4.08522,-0.0367 6.7991,4.36039 4.94017,8.0042 -1.38368,2.71224 -4.10386,3.78773 -7.00604,2.77002 z m -12.68857,-13.22307 c -2.22939,-0.59747 -4.10952,-3.08291 -4.10952,-5.43258 0,-2.890045 2.66325,-5.553296 5.5533,-5.553296 2.4454,0 5.01174,2.037045 5.50779,4.371846 0.89785,4.22595 -2.78556,7.73052 -6.95157,6.61403 z m -12.8658,-13.375381 c -3.03705,-0.517809 -5.118,-3.610671 -4.44755,-6.610261 0.43399,-1.941632 1.4262,-3.163514 3.23628,-3.985379 4.3906,-1.993548 9.10629,2.382666 7.47847,6.940103 -0.93796,2.626 -3.50921,4.125765 -6.2672,3.655537 z m 26.51223,-0.02619 c -2.42226,-0.454038 -4.08013,-2.248977 -4.42915,-4.795325 -0.58087,-4.237908 3.86653,-7.53582 7.77188,-5.763141 2.4632,1.118074 3.73347,3.626197 3.18104,6.280889 -0.32906,1.581234 -1.21881,2.787774 -2.66195,3.609676 -1.37009,0.780306 -2.35416,0.9505 -3.86182,0.667901 z"
         id="path846"
         inkscape:connector-curvature="0" />
    </g>
  </g>
</svg>
