<?xml version="1.0" encoding="UTF-8" standalone="no"?>
<!-- Created with Inkscape (http://www.inkscape.org/) -->

<svg
   xmlns:dc="http://purl.org/dc/elements/1.1/"
   xmlns:cc="http://creativecommons.org/ns#"
   xmlns:rdf="http://www.w3.org/1999/02/22-rdf-syntax-ns#"
   xmlns:svg="http://www.w3.org/2000/svg"
   xmlns="http://www.w3.org/2000/svg"
   xmlns:sodipodi="http://sodipodi.sourceforge.net/DTD/sodipodi-0.dtd"
   xmlns:inkscape="http://www.inkscape.org/namespaces/inkscape"
  
  
   viewBox="0 0 173.56259 152.85462"
   version="1.1"
   id="svg8"
   inkscape:version="0.92.4 (5da689c313, 2019-01-14)"
   sodipodi:docname="stardust.svg">
  <defs
     id="defs2" />
  <sodipodi:namedview
     id="base"
     pagecolor="#ffffff"
     bordercolor="#666666"
     borderopacity="1.0"
     inkscape:pageopacity="0.0"
     inkscape:pageshadow="2"
     inkscape:zoom="0.98994949"
     inkscape:cx="284.65688"
     inkscape:cy="284.28597"
     inkscape:document-units="mm"
     inkscape:current-layer="layer1"
     showgrid="false"
     inkscape:window-width="1920"
     inkscape:window-height="1027"
     inkscape:window-x="-8"
     inkscape:window-y="-8"
     inkscape:window-maximized="1" />
  <metadata
     id="metadata5">
    <rdf:RDF>
      <cc:Work
         rdf:about="">
        <dc:format>image/svg+xml</dc:format>
        <dc:type
           rdf:resource="http://purl.org/dc/dcmitype/StillImage" />
        <dc:title></dc:title>
      </cc:Work>
    </rdf:RDF>
  </metadata>
  <g
     inkscape:label="Layer 1"
     inkscape:groupmode="layer"
     id="layer1"
     transform="translate(1.3448582,-52.254844)">
    <path
       style="fill:#9b6ef7;stroke-width:0.99999994"
       d="m 28.603413,204.77423 c -0.237303,-0.28593 -0.352185,-0.79853 -0.255298,-1.13911 0.09689,-0.34058 4.57037,-11.73174 9.941073,-25.31368 7.141069,-18.05901 10.019778,-24.94819 10.713396,-25.63876 0.899587,-0.89564 1.528529,-1.03004 12.201592,-2.60731 7.849753,-1.16004 11.516333,-1.56795 12.123453,-1.34874 1.11317,0.40193 10.31371,16.00661 10.31371,17.4927 0,0.75609 -0.40358,1.26698 -1.85208,2.34458 -2.99223,2.22602 -51.168359,35.88166 -51.99768,36.32535 -0.600675,0.32137 -0.845675,0.29765 -1.188166,-0.11503 z m 102.469567,-7.4442 c -5.42344,-4.19436 -14.1,-10.86222 -19.28125,-14.81746 -8.32185,-6.3527 -9.46175,-7.34095 -9.77468,-8.47429 -0.22658,-0.82059 -0.27516,-5.99607 -0.13479,-14.36071 l 0.21945,-13.07774 0.83295,-0.83295 c 0.83133,-0.83133 0.84765,-0.83273 8.39961,-0.71975 7.07107,0.10578 7.61388,0.16047 8.28769,0.83493 0.40025,0.40064 3.83478,8.79738 7.7199,18.87361 3.84937,9.98353 8.85795,22.95171 11.13017,28.81817 2.27222,5.86646 4.03175,10.82739 3.91005,11.0243 -0.1217,0.19691 -0.49735,0.35802 -0.83478,0.35802 -0.33743,0 -5.05088,-3.43176 -10.47432,-7.62613 z M 9.558187,159.77623 c -2.179129,-0.91633 -3.527959,-3.0087 -3.527959,-5.47272 0,-3.15632 2.417215,-5.52043 5.644445,-5.52043 5.675669,0 7.760176,6.97517 3.113084,10.41698 -1.093922,0.8102 -3.929953,1.12266 -5.22957,0.57617 z m 154.290273,-6.51977 c -1.48339,-1.48339 -0.50492,-3.68641 1.63733,-3.68641 1.20393,0 2.02229,0.65054 2.30753,1.83433 0.17796,0.73853 0.0275,1.1544 -0.67021,1.85208 -0.49483,0.49483 -1.23163,0.8997 -1.63732,0.8997 -0.4057,0 -1.14249,-0.40487 -1.63733,-0.8997 z m -85.074851,-6.16368 c -3.92113,-1.02727 -6.58678,-2.60404 -9.80556,-5.80013 -2.1524,-2.13723 -3.17205,-3.48639 -4.14228,-5.48094 -4.421704,-9.08989 -2.42176,-19.42984 5.0693,-26.20886 8.50373,-7.69543 21.53834,-7.25844 29.83522,1.00021 7.696421,7.66098 8.369011,19.70438 1.603281,28.70872 -5.026361,6.68945 -14.393951,9.92037 -22.559961,7.781 z M 42.338626,132.64268 C 41.480744,132.06388 32.52384,125.42122 22.434395,117.88121 3.940484,104.0604 3.274664,103.48624 4.709037,102.596 c 0.570614,-0.35415 44.002939,0.0762 45.492656,0.45072 1.193123,0.29999 1.55442,0.7263 4.082539,4.81719 6.289029,10.17663 6.56899,10.70212 6.46835,12.14141 -0.03369,0.48195 -10.417165,9.63174 -14.641457,12.90188 -1.337176,1.03515 -1.905194,0.99532 -3.772499,-0.26452 z m -43.16756101,-2.55391 c -0.73671799,-1.05181 -0.69173799,-1.76177 0.18199,-2.87254 0.484836,-0.61637 1.070455,-0.92952 1.73828401,-0.92952 1.076186,0 2.469445,1.37581 2.469445,2.43853 0,1.24199 -1.041311,2.14758 -2.469445,2.14758 -1.01694401,0 -1.51295501,-0.20252 -1.92027401,-0.78405 z M 122.09412,122.95711 c -7.47007,-3.75044 -13.89944,-7.17131 -14.2875,-7.60194 -0.62234,-0.69061 -0.71982,-1.37999 -0.82647,-5.84513 -0.12008,-5.02714 -0.1147,-5.06839 0.77771,-5.96081 l 0.89863,-0.89863 h 31.37007 c 33.24757,0 32.46143,-0.0377 32.10294,1.54119 -0.0967,0.42579 -11.58696,8.87189 -31.63834,23.25623 -1.81434,1.30156 -3.63996,2.35783 -4.05694,2.34727 -0.41699,-0.0106 -6.87003,-3.08774 -14.3401,-6.83818 z M 74.815739,97.534151 c -5.38151,-3.665971 -5.99629,-4.223462 -5.97226,-5.415717 0.0266,-1.319964 15.90727,-39.236605 16.62037,-39.682771 0.42281,-0.264534 0.74073,-0.240835 1.13265,0.08443 0.788,0.653982 11.86151,28.785383 11.86151,30.133256 0,0.98069 -0.61179,1.731496 -4.67431,5.736438 -10.21691,10.072123 -12.53347,12.144143 -13.57735,12.144143 -0.65823,0 -2.45395,-0.999283 -5.39061,-2.999779 z M 138.45638,79.529206 c -1.19486,-1.823583 1.0261,-4.044537 2.84968,-2.849683 0.98467,0.645185 1.25461,2.541196 0.47306,3.322744 -0.78155,0.781547 -2.67756,0.511609 -3.32274,-0.473061 z"
       id="path902"
       inkscape:connector-curvature="0" />
  </g>
</svg>
