<?xml version="1.0" encoding="UTF-8" standalone="no"?>
<!-- Created with Inkscape (http://www.inkscape.org/) -->

<svg
   xmlns:dc="http://purl.org/dc/elements/1.1/"
   xmlns:cc="http://creativecommons.org/ns#"
   xmlns:rdf="http://www.w3.org/1999/02/22-rdf-syntax-ns#"
   xmlns:svg="http://www.w3.org/2000/svg"
   xmlns="http://www.w3.org/2000/svg"
   xmlns:sodipodi="http://sodipodi.sourceforge.net/DTD/sodipodi-0.dtd"
   xmlns:inkscape="http://www.inkscape.org/namespaces/inkscape"
   viewBox="0 0 54.186668 54.186669"
   version="1.1"
   id="svg8"
   sodipodi:docname="twitter.svg"
   inkscape:version="0.92.4 (5da689c313, 2019-01-14)">
  <defs
     id="defs2" />
  <sodipodi:namedview
     id="base"
     pagecolor="#434343"
     bordercolor="currentColor"
     borderopacity="1.0"
     inkscape:pageopacity="0"
     inkscape:pageshadow="2"
     inkscape:zoom="11.313708"
     inkscape:cx="16.267706"
     inkscape:cy="38.087672"
     inkscape:document-units="mm"
     inkscape:current-layer="layer1"
     showgrid="false"
     inkscape:window-width="1920"
     inkscape:window-height="1027"
     inkscape:window-x="-8"
     inkscape:window-y="-8"
     inkscape:window-maximized="1" />
  <metadata
     id="metadata5">
    <rdf:RDF>
      <cc:Work
         rdf:about="">
        <dc:format>image/svg+xml</dc:format>
        <dc:type
           rdf:resource="http://purl.org/dc/dcmitype/StillImage" />
        <dc:title />
      </cc:Work>
    </rdf:RDF>
  </metadata>
  <g
     inkscape:label="Layer 1"
     inkscape:groupmode="layer"
     id="layer1"
     transform="translate(-144.22133,-111.21615)">
    <flowRoot
       xml:space="preserve"
       id="flowRoot6921"
       style="font-style:normal;font-weight:normal;font-size:40px;line-height:1.25;font-family:sans-serif;letter-spacing:0px;word-spacing:0px;fill:#000000;fill-opacity:1;stroke:none"
       transform="matrix(0.26458333,0,0,0.26458333,115.33466,128.70574)"><flowRegion
         id="flowRegion6923"><rect
           id="rect6925"
           x="234.75945"
           y="73.195915" /></flowRegion><flowPara
         id="flowPara6927" /></flowRoot>    <text
       xml:space="preserve"
       style="font-style:normal;font-weight:normal;font-size:10.58333302px;line-height:1.25;font-family:sans-serif;letter-spacing:0px;word-spacing:0px;fill:#000000;fill-opacity:1;stroke:none;stroke-width:0.26458332"
       x="196.15697"
       y="168.65192"
       id="text6931"><tspan
         sodipodi:role="line"
         id="tspan6929"
         x="196.15697"
         y="178.30742"
         style="stroke-width:0.26458332" /></text>
    <path
       style="opacity:1;fill:currentColor;fill-opacity:1;fill-rule:nonzero;stroke:none;stroke-width:3.77952766;stroke-linecap:round;stroke-linejoin:miter;stroke-miterlimit:4;stroke-dasharray:none;stroke-opacity:1;paint-order:fill markers stroke"
       d="m 181.62662,116.95629 c -2.06559,-0.005 -3.22396,0.28131 -5.03685,1.23763 -3.09915,1.63481 -5.15962,4.46971 -5.69884,7.84021 -0.077,0.48036 -0.12115,1.63232 -0.0979,2.55872 l 0.0432,1.68374 -0.93542,-0.0317 c -1.31023,-0.047 -3.19498,-0.34581 -4.40364,-0.69652 -0.56356,-0.16352 -1.50341,-0.42621 -2.08669,-0.58428 -1.24888,-0.3384 -3.59775,-1.21291 -3.86542,-1.43909 -0.10301,-0.087 -0.61071,-0.35671 -1.12538,-0.59867 -1.75481,-0.82494 -4.24738,-2.44684 -5.32467,-3.46248 -0.35616,-0.33578 -0.69509,-0.61017 -0.75408,-0.61017 -0.18269,0 -3.15245,-3.00535 -3.35311,-3.39341 -0.1369,-0.26475 -0.26582,-0.35335 -0.46339,-0.32523 -0.21474,0.0305 -0.3602,0.25973 -0.68501,1.07357 -0.616,1.5434 -0.80931,2.77564 -0.7397,4.70298 0.0835,2.31482 0.55797,3.87448 1.65497,5.43116 0.26464,0.37554 0.64388,0.92299 0.84331,1.21748 0.19941,0.29448 0.66187,0.75738 1.02751,1.02751 0.75501,0.55775 0.87087,0.69766 0.65048,0.77712 -0.27373,0.0987 -2.02645,-0.26219 -2.91274,-0.59867 -0.4722,-0.17928 -0.99459,-0.35837 -1.15991,-0.39719 l -0.30222,-0.0691 0.0834,0.95844 c 0.10242,1.21156 0.48901,2.74574 0.92678,3.66683 0.64478,1.35665 1.92273,2.93561 3.17466,3.92299 1.12665,0.88859 2.70021,1.73182 3.56609,1.90824 0.2299,0.0469 0.39236,0.14685 0.36553,0.22738 -0.0759,0.2276 -1.28106,0.356 -2.74293,0.29358 l -1.34124,-0.0575 v 0.29934 c 0,0.44908 1.09081,2.53318 1.62331,3.1027 0.25665,0.27449 0.69746,0.75683 0.97859,1.07069 0.61684,0.68866 2.7357,2.04002 3.80785,2.42919 0.70343,0.25535 1.3559,0.40247 2.74005,0.61882 0.26174,0.041 0.45619,0.1235 0.43461,0.18132 -0.23699,0.6357 -4.6392,2.97819 -6.65152,3.54019 -2.40163,0.67072 -5.44701,1.04096 -7.44302,0.90375 -2.12552,-0.14604 -1.89534,0.0622 2.26514,2.03777 0.17156,0.0815 0.50816,0.25531 0.74833,0.38568 0.91476,0.49657 5.3028,1.77985 7.0775,2.06943 2.73334,0.446 6.43018,0.48645 9.45488,0.1036 1.7631,-0.22312 2.58316,-0.41359 5.67581,-1.31821 2.84904,-0.83336 8.08097,-3.74542 9.73406,-5.41677 0.30881,-0.31222 0.72956,-0.67209 0.93542,-0.80302 0.47253,-0.30051 2.33713,-2.31331 3.19192,-3.4452 0.35725,-0.47303 0.75473,-0.97374 0.88361,-1.11098 0.29873,-0.31809 1.47652,-2.15499 1.47652,-2.30256 0,-0.0613 0.1367,-0.27477 0.30509,-0.47491 0.37142,-0.4414 1.16299,-2.007 1.69238,-3.34734 0.21422,-0.54237 0.46779,-1.10418 0.56125,-1.24914 0.39394,-0.61105 0.99031,-2.77243 1.70389,-6.16223 0.31937,-1.51717 0.39106,-2.17201 0.43749,-4.05538 0.0336,-1.36288 0.11215,-2.36131 0.20147,-2.54145 0.0811,-0.16326 0.53009,-0.5975 0.99874,-0.9642 1.8774,-1.46897 4.70234,-4.85652 3.73878,-4.48423 -0.70507,0.27241 -1.89441,0.63676 -3.15163,0.96707 -2.45984,0.64631 -2.57895,0.619 -1.38441,-0.31948 1.06114,-0.83368 2.23124,-2.28271 2.91273,-3.60926 0.32531,-0.63324 0.58941,-1.19191 0.59004,-1.24338 0.003,-0.17995 -0.43761,-0.0893 -0.93254,0.19284 -0.27448,0.15653 -0.97669,0.47403 -1.55998,0.70515 -0.5833,0.23112 -1.12525,0.47021 -1.20309,0.52959 -0.16734,0.12777 -2.01895,0.66313 -2.70839,0.78288 -0.44959,0.0781 -0.51616,0.0457 -0.99874,-0.45763 -0.97599,-1.01804 -3.4159,-2.33041 -4.97064,-2.67386 -0.56289,-0.12438 -1.5097,-0.20214 -2.47238,-0.20435 z"
       id="rect5178"
       inkscape:connector-curvature="0" />
  </g>
</svg>
