<svg version="1.1" viewBox="0 0 170 170" xmlns="http://www.w3.org/2000/svg">
  <g transform="translate(-143.01 -67.963)">
    <g transform="translate(1.4279 10.368)">
      <path d="m238.42 159.42-66.557 10.734-1.506-1.318-4.3975-4.0019-3.3072-3.1546-1.397-1.4285c-5.9794-10.856-16.458-26.229-18.371-54.938l0.21599-1.4817 0.216-1.4817 0.42592-2.0206 0.58078-2.0178 0.47694-1.2405 0.47693-1.2405 1.0864-2.3707 1.4066-2.7124 1.4038-2.3676 0.80264-1.2146z" fill="#feadc4"/>
      <path d="m180.6 177.36-4.2335-3.388-2.9631-2.4763-1.0878-0.95116-1.0878-0.95117 5.9829-6.0353 21.593-21.62v-0.1938l-21.759-21.792-29.168-29.217v-0.17422l0.72704-1.2202 0.72705-1.2202 0.73225-1.0994 0.73226-1.0994 1.5893-2.1133 1.5678-1.8686 1.9338-2.0825 1.0117-0.94161 103.02 43.973c-20.873 7.3848 24.847 135.2-79.317 54.472zm-12.625-47.415 5.7926 5.7573 6.1126 6.0686v0.1418l-6.1149 6.0663-5.8114 5.7816z" fill="#76d5ed"/>
      <path d="m160.57 159.56-0.70812-0.74592-1.7107-1.9372-1.9071-2.286-2.4857-3.3071-1.9635-2.9582-1.2606-2.1167-1.1356-2.065-0.79465-1.6345-0.79465-1.6345-1.0467-2.54-0.49145-1.3547-0.49144-1.3547-0.86188-2.8447-0.33349-1.3293-0.33348-1.3293-0.29699-1.4817-0.297-1.4817-0.21125-1.3547-0.21124-1.3547-0.25944-2.2013-0.12714-1.4817-0.12713-1.4817-0.1914-4.6567 0.0553-2.8363 0.0553-2.8363 0.0809-1.3547 0.0809-1.3547 0.053-0.60549 0.0531-0.60548 7.007 6.9683 12.273 12.192 11.585 11.515 6.1126 6.0686v0.1418l-6.1149 6.0663-11.623 11.563-0.38652 0.3779-0.38653 0.3779h-0.0966z" fill="#f9f9f9"/>
      <path d="m225.11 143.76-7.8345-31.687 93.292 3.1386 3.9e-4 4.1487-0.10867 1.397-0.10868 1.397-0.254 2.54-0.49688 3.4713-0.29469 1.4603-0.29468 1.4603-0.34193 1.3131-0.34194 1.3131-0.70142 2.1579-0.44494 1.143-0.44495 1.143-1.0184 2.3707-0.61489 1.3269z" fill="#feeb00"/>
      <path d="m218.73 141.84-19.076-19.006-17.775-17.696-17.774-17.738h-0.065l60.589 3.3021 0.31494 0.80433 0.5827 2.286 0.58271 2.286 0.1352 0.31263 2.6905-5.9006c16.369-33.028 62.071-29.455 77.355 0.95946l0.59189 1.1778 0.46003 1.18 0.46004 1.18 0.34208 1.1381 0.34209 1.1381 0.29494 1.1853 0.29493 1.1853 0.59824 3.1327 0.16911 1.1853 0.16911 1.1853 0.25862 2.286 0.12896 1.6087 0.12897 1.6087 0.1062 5.6303h-79.138l25.561 25.566 24.025 1e-3c-61.109 17.031-41.128 16.036-62.353 1e-3z" fill="#fe8b00"/>
      <path d="m227.43 209.8-0.13097-0.13097c-15.989-30.811-25.132 2.8527-36.431-40.049l8.8706-8.8488 18.991-18.923-19.076-19.006-8.8874-8.848 40.725 2.2646 25.553 25.59h24.032l6.0748 23.198c-12.881 12.011-5.084 3.4907-35.152 27.961l-24.174 16.776-0.13299 0.14817h-0.131z" fill="#034cfe"/>
      <path d="m225.91 218-0.13097-0.13097-1.2884-2.2825-0.6914-1.035-0.69139-1.035-1.2352-1.6357c-1.561-1.8852-3.2514-3.6922-5.1116-5.5088-3.5107-3.4285-7.6263-6.8914-12.619-10.98l-1.5663-1.2309 3.2216-1.0918 46.202 0.0102-0.76039 0.63169c-7.9069 6.7471-12.216 10.602-18.171 16.502l-3.0776 3.0495-1.9541 2.1586-0.91369 1.1434-0.68548 1.27-0.13299 0.14816-0.13299 0.14817h-0.131z" fill="#760788"/>
      <path d="m199.74 160.77 18.991-18.923-19.076-19.006-17.775-17.696-17.774-17.738h-0.065l18.13-20.165 1.397-0.10905 8.5513-0.0022 2.4553 0.22074 1.9473 0.24689 1.766 0.35241 1.79 0.50183 2.2013 0.8624 3.3867 1.7268 2.7367 1.5339 0.98469 0.64203 0.98468 0.64203 1.8979 1.4216 2.2013 1.8362 3.1806 3.1248 1.8772 2.1603 1.4304 1.8297 2.0348 3.048 1.5947 3.2061v0.13748l-18.65 0.04308 51.106 51.181 0.97845 25.569zm29.168-70.189v-0.04363l0.51801-1.0359 0.51802-1.0359 1.1036-1.9473 2.0808-3.1327 1.4794-1.8627 1.6654-1.8847 1.2118-1.1743 1.2118-1.1743 2.0221-1.6537 2.1645-1.5741 2.5769-1.5853 2.7093-1.3998 2.032-0.87098 1.6933-0.64625 2.1167-0.70066 2.8787-0.74704 2.2447-0.4318 1.7338-0.26042 2.2867-0.25723 4.826-0.09758 2.8787 0.20104 2.6247 0.33106 2.3707 0.42773 3.0832 0.75751 2.6741 0.86322 2.7093 1.061 2.7093 1.2574 2.5311 1.4123 1.0558 0.67025 1.0558 0.67025 0.89597 0.64362 0.89596 0.64362 0.97685 0.78226 0.97684 0.78226 0.80116 0.71426 0.80115 0.71426 1.778 1.7645 1.6415 1.8221 1.5899 1.9875 1.6007 2.2421 1.5303 2.4993 0.7191 1.3123h-76.974z" fill="#e40000"/>
      <path d="m192.83 186.74-6.6308-5.0681-1.5343-1.1677-1.524-1.179-1.1466-0.86593 17.741-17.698 18.991-18.923-19.076-19.006-17.775-17.696-17.774-17.738h-0.065l-7.846-7.8317 2.0574-1.8927 1.6111-1.3246 1.6062-1.1985 2.3237-1.553 2.2483-1.2948 2.4977-1.2379 51.259 33.468 37.247 37.306 0.97884 25.569h-26.527l-13.82 13.82z" fill="#613813"/>
      <path d="m215.29 164.29 22.446-22.444-35.106-35.105 17.133-2.2003 37.296 37.303 48.05 2e-3 -0.35076 0.6985-0.35077 0.6985-1.1852 2.2013-0.8895 1.4817-0.8895 1.4817-1.8791 2.794-1.0365 1.3799-1.0365 1.3799-1.7583 2.1509-2.4594 2.794-2.9408 3.0789-3.3837 3.2479-2.3978 2.1821h-53.055l-13.82 13.82z" fill="#0a7e20"/>
      <path d="m202.45 194.07-1.27-1.0123-7.874-5.9487-0.24245-0.18133-0.23522-0.19062 22.463-22.45 22.446-22.444-70.212-70.211v-0.0734l3.7677-1.8348 2.403-0.95022 2.3383-0.66849 2.1167-0.42611 2.6247-0.33464 0.84253-0.06738 0.85907-0.06738 37.243 37.28 37.251 37.256 0.0488 0.1462-53.162 53.16-0.0698 0.0584-0.0554-0.0387z"/>
    </g>
  </g>
</svg>
